<svg xmlns="http://www.w3.org/2000/svg" width="1200" height="340" viewBox="0 0 1200 340">
<rect width="100%" height="100%" fill="white"/>
<text x="40" y="34" font-size="22" font-family="monospace">gt:012698</text>
<rect x="40" y="70" width="260" height="220" fill="#fafafa" stroke="#d4d4d8"/>
<text x="50" y="90" font-size="14" font-family="monospace">t=0</text>
<polyline fill="none" stroke="#0f172a" stroke-width="3" points="170.7,171.2 146.2,171.3 121.8,187.8 125.1,205.2 102.3,154.2"/>
<polyline fill="none" stroke="#2563eb" stroke-width="3" points="170.7,171.2 193.5,177.4 224.6,192.8 221.8,205.8 245.9,159.2"/>
<polyline fill="none" stroke="#dc2626" stroke-width="3" points="170.7,171.2 171.0,190.3 176.9,180.7 177.5,178.1 178.1,191.3 182.7,170.3"/>
<polyline fill="none" stroke="#059669" stroke-width="3" points="177.5,178.1 147.0,185.9 98.1,185.8 84.8,197.8 72.5,161.9"/>
<polyline fill="none" stroke="#d97706" stroke-width="3" points="177.5,178.1 210.2,184.5 259.9,193.2 255.5,203.5 267.5,175.3"/>
<circle cx="170.7" cy="171.2" r="2.5" fill="#111827"/>
<circle cx="193.5" cy="177.4" r="2.5" fill="#111827"/>
<circle cx="146.2" cy="171.3" r="2.5" fill="#111827"/>
<circle cx="171.0" cy="190.3" r="2.5" fill="#111827"/>
<circle cx="224.6" cy="192.8" r="2.5" fill="#111827"/>
<circle cx="121.8" cy="187.8" r="2.5" fill="#111827"/>
<circle cx="176.9" cy="180.7" r="2.5" fill="#111827"/>
<circle cx="221.8" cy="205.8" r="2.5" fill="#111827"/>
<circle cx="125.1" cy="205.2" r="2.5" fill="#111827"/>
<circle cx="177.5" cy="178.1" r="2.5" fill="#111827"/>
<circle cx="245.9" cy="159.2" r="2.5" fill="#111827"/>
<circle cx="102.3" cy="154.2" r="2.5" fill="#111827"/>
<circle cx="178.1" cy="191.3" r="2.5" fill="#111827"/>
<circle cx="210.2" cy="184.5" r="2.5" fill="#111827"/>
<circle cx="147.0" cy="185.9" r="2.5" fill="#111827"/>
<circle cx="182.7" cy="170.3" r="2.5" fill="#111827"/>
<circle cx="259.9" cy="193.2" r="2.5" fill="#111827"/>
<circle cx="98.1" cy="185.8" r="2.5" fill="#111827"/>
<circle cx="255.5" cy="203.5" r="2.5" fill="#111827"/>
<circle cx="84.8" cy="197.8" r="2.5" fill="#111827"/>
<circle cx="267.5" cy="175.3" r="2.5" fill="#111827"/>
<circle cx="72.5" cy="161.9" r="2.5" fill="#111827"/>
<rect x="330" y="70" width="260" height="220" fill="#fafafa" stroke="#d4d4d8"/>
<text x="340" y="90" font-size="14" font-family="monospace">t=7</text>
<polyline fill="none" stroke="#0f172a" stroke-width="3" points="460.0,171.5 435.6,171.5 411.3,187.8 414.5,205.0 391.8,154.2"/>
<polyline fill="none" stroke="#2563eb" stroke-width="3" points="460.0,171.5 482.7,177.7 513.7,192.9 510.9,205.8 534.9,159.4"/>
<polyline fill="none" stroke="#dc2626" stroke-width="3" points="460.0,171.5 460.2,190.5 466.0,181.2 466.5,178.8 466.6,192.3 470.9,171.3"/>
<polyline fill="none" stroke="#059669" stroke-width="3" points="466.5,178.8 435.8,186.6 387.1,186.4 374.4,198.1 362.5,162.4"/>
<polyline fill="none" stroke="#d97706" stroke-width="3" points="466.5,178.8 498.8,185.4 548.4,194.2 544.4,203.5 557.5,175.2"/>
<circle cx="460.0" cy="171.5" r="2.5" fill="#111827"/>
<circle cx="482.7" cy="177.7" r="2.5" fill="#111827"/>
<circle cx="435.6" cy="171.5" r="2.5" fill="#111827"/>
<circle cx="460.2" cy="190.5" r="2.5" fill="#111827"/>
<circle cx="513.7" cy="192.9" r="2.5" fill="#111827"/>
<circle cx="411.3" cy="187.8" r="2.5" fill="#111827"/>
<circle cx="466.0" cy="181.2" r="2.5" fill="#111827"/>
<circle cx="510.9" cy="205.8" r="2.5" fill="#111827"/>
<circle cx="414.5" cy="205.0" r="2.5" fill="#111827"/>
<circle cx="466.5" cy="178.8" r="2.5" fill="#111827"/>
<circle cx="534.9" cy="159.4" r="2.5" fill="#111827"/>
<circle cx="391.8" cy="154.2" r="2.5" fill="#111827"/>
<circle cx="466.6" cy="192.3" r="2.5" fill="#111827"/>
<circle cx="498.8" cy="185.4" r="2.5" fill="#111827"/>
<circle cx="435.8" cy="186.6" r="2.5" fill="#111827"/>
<circle cx="470.9" cy="171.3" r="2.5" fill="#111827"/>
<circle cx="548.4" cy="194.2" r="2.5" fill="#111827"/>
<circle cx="387.1" cy="186.4" r="2.5" fill="#111827"/>
<circle cx="544.4" cy="203.5" r="2.5" fill="#111827"/>
<circle cx="374.4" cy="198.1" r="2.5" fill="#111827"/>
<circle cx="557.5" cy="175.2" r="2.5" fill="#111827"/>
<circle cx="362.5" cy="162.4" r="2.5" fill="#111827"/>
<rect x="620" y="70" width="260" height="220" fill="#fafafa" stroke="#d4d4d8"/>
<text x="630" y="90" font-size="14" font-family="monospace">t=15</text>
<polyline fill="none" stroke="#0f172a" stroke-width="3" points="750.2,182.4 728.9,182.4 707.6,195.8 710.2,210.6 690.4,166.2"/>
<polyline fill="none" stroke="#2563eb" stroke-width="3" points="750.2,182.4 770.1,188.0 797.0,199.7 794.4,210.6 815.3,170.0"/>
<polyline fill="none" stroke="#dc2626" stroke-width="3" points="750.2,182.4 750.2,199.1 755.4,191.1 755.8,188.9 755.9,200.9 759.5,182.3"/>
<polyline fill="none" stroke="#059669" stroke-width="3" points="755.8,188.9 728.9,196.0 686.3,196.6 669.3,197.9 652.5,149.4"/>
<polyline fill="none" stroke="#d97706" stroke-width="3" points="755.8,188.9 784.0,194.7 827.9,202.7 830.7,205.3 847.5,162.3"/>
<circle cx="750.2" cy="182.4" r="2.5" fill="#111827"/>
<circle cx="770.1" cy="188.0" r="2.5" fill="#111827"/>
<circle cx="728.9" cy="182.4" r="2.5" fill="#111827"/>
<circle cx="750.2" cy="199.1" r="2.5" fill="#111827"/>
<circle cx="797.0" cy="199.7" r="2.5" fill="#111827"/>
<circle cx="707.6" cy="195.8" r="2.5" fill="#111827"/>
<circle cx="755.4" cy="191.1" r="2.5" fill="#111827"/>
<circle cx="794.4" cy="210.6" r="2.5" fill="#111827"/>
<circle cx="710.2" cy="210.6" r="2.5" fill="#111827"/>
<circle cx="755.8" cy="188.9" r="2.5" fill="#111827"/>
<circle cx="815.3" cy="170.0" r="2.5" fill="#111827"/>
<circle cx="690.4" cy="166.2" r="2.5" fill="#111827"/>
<circle cx="755.9" cy="200.9" r="2.5" fill="#111827"/>
<circle cx="784.0" cy="194.7" r="2.5" fill="#111827"/>
<circle cx="728.9" cy="196.0" r="2.5" fill="#111827"/>
<circle cx="759.5" cy="182.3" r="2.5" fill="#111827"/>
<circle cx="827.9" cy="202.7" r="2.5" fill="#111827"/>
<circle cx="686.3" cy="196.6" r="2.5" fill="#111827"/>
<circle cx="830.7" cy="205.3" r="2.5" fill="#111827"/>
<circle cx="669.3" cy="197.9" r="2.5" fill="#111827"/>
<circle cx="847.5" cy="162.3" r="2.5" fill="#111827"/>
<circle cx="652.5" cy="149.4" r="2.5" fill="#111827"/>
<rect x="910" y="70" width="260" height="220" fill="#fafafa" stroke="#d4d4d8"/>
<text x="920" y="90" font-size="14" font-family="monospace">t=23</text>
<polyline fill="none" stroke="#0f172a" stroke-width="3" points="1048.5,215.9 1033.6,215.3 1018.5,223.1 1019.0,231.9 1005.3,200.5"/>
<polyline fill="none" stroke="#2563eb" stroke-width="3" points="1048.5,215.9 1062.5,220.1 1080.9,227.3 1078.7,232.5 1093.2,203.9"/>
<polyline fill="none" stroke="#dc2626" stroke-width="3" points="1048.5,215.9 1048.3,227.9 1051.1,222.3 1051.2,221.3 1050.1,230.6 1052.4,216.8"/>
<polyline fill="none" stroke="#059669" stroke-width="3" points="1051.2,221.3 1031.6,226.2 1003.1,222.3 955.2,189.0 942.5,127.5"/>
<polyline fill="none" stroke="#d97706" stroke-width="3" points="1051.2,221.3 1070.6,226.4 1102.9,227.4 1127.1,199.4 1137.5,134.9"/>
<circle cx="1048.5" cy="215.9" r="2.5" fill="#111827"/>
<circle cx="1062.5" cy="220.1" r="2.5" fill="#111827"/>
<circle cx="1033.6" cy="215.3" r="2.5" fill="#111827"/>
<circle cx="1048.3" cy="227.9" r="2.5" fill="#111827"/>
<circle cx="1080.9" cy="227.3" r="2.5" fill="#111827"/>
<circle cx="1018.5" cy="223.1" r="2.5" fill="#111827"/>
<circle cx="1051.1" cy="222.3" r="2.5" fill="#111827"/>
<circle cx="1078.7" cy="232.5" r="2.5" fill="#111827"/>
<circle cx="1019.0" cy="231.9" r="2.5" fill="#111827"/>
<circle cx="1051.2" cy="221.3" r="2.5" fill="#111827"/>
<circle cx="1093.2" cy="203.9" r="2.5" fill="#111827"/>
<circle cx="1005.3" cy="200.5" r="2.5" fill="#111827"/>
<circle cx="1050.1" cy="230.6" r="2.5" fill="#111827"/>
<circle cx="1070.6" cy="226.4" r="2.5" fill="#111827"/>
<circle cx="1031.6" cy="226.2" r="2.5" fill="#111827"/>
<circle cx="1052.4" cy="216.8" r="2.5" fill="#111827"/>
<circle cx="1102.9" cy="227.4" r="2.5" fill="#111827"/>
<circle cx="1003.1" cy="222.3" r="2.5" fill="#111827"/>
<circle cx="1127.1" cy="199.4" r="2.5" fill="#111827"/>
<circle cx="955.2" cy="189.0" r="2.5" fill="#111827"/>
<circle cx="1137.5" cy="134.9" r="2.5" fill="#111827"/>
<circle cx="942.5" cy="127.5" r="2.5" fill="#111827"/>
</svg>
