<svg xmlns="http://www.w3.org/2000/svg" width="1200" height="340" viewBox="0 0 1200 340">
<rect width="100%" height="100%" fill="white"/>
<text x="40" y="34" font-size="22" font-family="monospace">action:012698</text>
<rect x="40" y="70" width="260" height="220" fill="#fafafa" stroke="#d4d4d8"/>
<text x="50" y="90" font-size="14" font-family="monospace">t=0</text>
<polyline fill="none" stroke="#0f172a" stroke-width="3" points="170.4,171.3 146.4,171.4 122.0,187.5 124.7,204.8 102.2,154.7"/>
<polyline fill="none" stroke="#2563eb" stroke-width="3" points="170.4,171.3 192.8,177.4 222.8,192.3 219.5,205.3 243.1,159.5"/>
<polyline fill="none" stroke="#dc2626" stroke-width="3" points="170.4,171.3 170.7,190.0 176.5,180.6 176.9,178.2 176.9,191.4 180.6,170.5"/>
<polyline fill="none" stroke="#059669" stroke-width="3" points="176.9,178.2 146.6,186.2 98.7,187.1 86.1,197.7 72.5,160.8"/>
<polyline fill="none" stroke="#d97706" stroke-width="3" points="176.9,178.2 208.7,184.3 257.6,192.6 254.8,203.0 267.5,174.2"/>
<circle cx="170.4" cy="171.3" r="2.5" fill="#111827"/>
<circle cx="192.8" cy="177.4" r="2.5" fill="#111827"/>
<circle cx="146.4" cy="171.4" r="2.5" fill="#111827"/>
<circle cx="170.7" cy="190.0" r="2.5" fill="#111827"/>
<circle cx="222.8" cy="192.3" r="2.5" fill="#111827"/>
<circle cx="122.0" cy="187.5" r="2.5" fill="#111827"/>
<circle cx="176.5" cy="180.6" r="2.5" fill="#111827"/>
<circle cx="219.5" cy="205.3" r="2.5" fill="#111827"/>
<circle cx="124.7" cy="204.8" r="2.5" fill="#111827"/>
<circle cx="176.9" cy="178.2" r="2.5" fill="#111827"/>
<circle cx="243.1" cy="159.5" r="2.5" fill="#111827"/>
<circle cx="102.2" cy="154.7" r="2.5" fill="#111827"/>
<circle cx="176.9" cy="191.4" r="2.5" fill="#111827"/>
<circle cx="208.7" cy="184.3" r="2.5" fill="#111827"/>
<circle cx="146.6" cy="186.2" r="2.5" fill="#111827"/>
<circle cx="180.6" cy="170.5" r="2.5" fill="#111827"/>
<circle cx="257.6" cy="192.6" r="2.5" fill="#111827"/>
<circle cx="98.7" cy="187.1" r="2.5" fill="#111827"/>
<circle cx="254.8" cy="203.0" r="2.5" fill="#111827"/>
<circle cx="86.1" cy="197.7" r="2.5" fill="#111827"/>
<circle cx="267.5" cy="174.2" r="2.5" fill="#111827"/>
<circle cx="72.5" cy="160.8" r="2.5" fill="#111827"/>
<rect x="330" y="70" width="260" height="220" fill="#fafafa" stroke="#d4d4d8"/>
<text x="340" y="90" font-size="14" font-family="monospace">t=7</text>
<polyline fill="none" stroke="#0f172a" stroke-width="3" points="456.2,173.5 437.5,176.6 414.7,181.8 418.4,198.9 399.6,156.7"/>
<polyline fill="none" stroke="#2563eb" stroke-width="3" points="456.2,173.5 478.0,179.0 501.6,186.5 491.5,198.9 515.0,161.8"/>
<polyline fill="none" stroke="#dc2626" stroke-width="3" points="456.2,173.5 453.7,186.8 461.8,179.8 461.4,178.0 460.0,185.4 462.9,167.8"/>
<polyline fill="none" stroke="#059669" stroke-width="3" points="461.4,178.0 432.6,183.2 395.0,185.6 377.9,195.9 362.5,159.8"/>
<polyline fill="none" stroke="#d97706" stroke-width="3" points="461.4,178.0 489.0,182.3 533.1,191.7 535.0,203.3 557.5,172.5"/>
<circle cx="456.2" cy="173.5" r="2.5" fill="#111827"/>
<circle cx="478.0" cy="179.0" r="2.5" fill="#111827"/>
<circle cx="437.5" cy="176.6" r="2.5" fill="#111827"/>
<circle cx="453.7" cy="186.8" r="2.5" fill="#111827"/>
<circle cx="501.6" cy="186.5" r="2.5" fill="#111827"/>
<circle cx="414.7" cy="181.8" r="2.5" fill="#111827"/>
<circle cx="461.8" cy="179.8" r="2.5" fill="#111827"/>
<circle cx="491.5" cy="198.9" r="2.5" fill="#111827"/>
<circle cx="418.4" cy="198.9" r="2.5" fill="#111827"/>
<circle cx="461.4" cy="178.0" r="2.5" fill="#111827"/>
<circle cx="515.0" cy="161.8" r="2.5" fill="#111827"/>
<circle cx="399.6" cy="156.7" r="2.5" fill="#111827"/>
<circle cx="460.0" cy="185.4" r="2.5" fill="#111827"/>
<circle cx="489.0" cy="182.3" r="2.5" fill="#111827"/>
<circle cx="432.6" cy="183.2" r="2.5" fill="#111827"/>
<circle cx="462.9" cy="167.8" r="2.5" fill="#111827"/>
<circle cx="533.1" cy="191.7" r="2.5" fill="#111827"/>
<circle cx="395.0" cy="185.6" r="2.5" fill="#111827"/>
<circle cx="535.0" cy="203.3" r="2.5" fill="#111827"/>
<circle cx="377.9" cy="195.9" r="2.5" fill="#111827"/>
<circle cx="557.5" cy="172.5" r="2.5" fill="#111827"/>
<circle cx="362.5" cy="159.8" r="2.5" fill="#111827"/>
<rect x="620" y="70" width="260" height="220" fill="#fafafa" stroke="#d4d4d8"/>
<text x="630" y="90" font-size="14" font-family="monospace">t=15</text>
<polyline fill="none" stroke="#0f172a" stroke-width="3" points="746.6,173.8 728.1,177.5 705.7,183.4 710.0,200.2 689.9,159.0"/>
<polyline fill="none" stroke="#2563eb" stroke-width="3" points="746.6,173.8 768.4,178.5 792.1,185.2 782.7,197.8 804.7,160.1"/>
<polyline fill="none" stroke="#dc2626" stroke-width="3" points="746.6,173.8 744.4,187.1 752.2,179.9 751.6,178.4 750.3,185.8 752.6,168.4"/>
<polyline fill="none" stroke="#059669" stroke-width="3" points="751.6,178.4 723.2,184.5 686.1,188.3 669.4,199.5 652.5,164.7"/>
<polyline fill="none" stroke="#d97706" stroke-width="3" points="751.6,178.4 779.1,181.7 823.1,189.5 825.8,201.0 847.5,170.1"/>
<circle cx="746.6" cy="173.8" r="2.5" fill="#111827"/>
<circle cx="768.4" cy="178.5" r="2.5" fill="#111827"/>
<circle cx="728.1" cy="177.5" r="2.5" fill="#111827"/>
<circle cx="744.4" cy="187.1" r="2.5" fill="#111827"/>
<circle cx="792.1" cy="185.2" r="2.5" fill="#111827"/>
<circle cx="705.7" cy="183.4" r="2.5" fill="#111827"/>
<circle cx="752.2" cy="179.9" r="2.5" fill="#111827"/>
<circle cx="782.7" cy="197.8" r="2.5" fill="#111827"/>
<circle cx="710.0" cy="200.2" r="2.5" fill="#111827"/>
<circle cx="751.6" cy="178.4" r="2.5" fill="#111827"/>
<circle cx="804.7" cy="160.1" r="2.5" fill="#111827"/>
<circle cx="689.9" cy="159.0" r="2.5" fill="#111827"/>
<circle cx="750.3" cy="185.8" r="2.5" fill="#111827"/>
<circle cx="779.1" cy="181.7" r="2.5" fill="#111827"/>
<circle cx="723.2" cy="184.5" r="2.5" fill="#111827"/>
<circle cx="752.6" cy="168.4" r="2.5" fill="#111827"/>
<circle cx="823.1" cy="189.5" r="2.5" fill="#111827"/>
<circle cx="686.1" cy="188.3" r="2.5" fill="#111827"/>
<circle cx="825.8" cy="201.0" r="2.5" fill="#111827"/>
<circle cx="669.4" cy="199.5" r="2.5" fill="#111827"/>
<circle cx="847.5" cy="170.1" r="2.5" fill="#111827"/>
<circle cx="652.5" cy="164.7" r="2.5" fill="#111827"/>
<rect x="910" y="70" width="260" height="220" fill="#fafafa" stroke="#d4d4d8"/>
<text x="920" y="90" font-size="14" font-family="monospace">t=23</text>
<polyline fill="none" stroke="#0f172a" stroke-width="3" points="1037.8,174.9 1020.2,179.1 997.6,184.9 1002.7,201.8 981.6,161.7"/>
<polyline fill="none" stroke="#2563eb" stroke-width="3" points="1037.8,174.9 1059.4,179.1 1083.2,183.8 1073.1,196.3 1094.4,158.2"/>
<polyline fill="none" stroke="#dc2626" stroke-width="3" points="1037.8,174.9 1036.1,188.5 1043.6,180.9 1043.3,178.9 1041.7,187.3 1043.4,169.8"/>
<polyline fill="none" stroke="#059669" stroke-width="3" points="1043.3,178.9 1015.3,186.6 978.3,191.6 960.6,200.6 942.5,164.2"/>
<polyline fill="none" stroke="#d97706" stroke-width="3" points="1043.3,178.9 1070.3,182.3 1113.4,188.5 1118.1,196.9 1137.5,163.7"/>
<circle cx="1037.8" cy="174.9" r="2.5" fill="#111827"/>
<circle cx="1059.4" cy="179.1" r="2.5" fill="#111827"/>
<circle cx="1020.2" cy="179.1" r="2.5" fill="#111827"/>
<circle cx="1036.1" cy="188.5" r="2.5" fill="#111827"/>
<circle cx="1083.2" cy="183.8" r="2.5" fill="#111827"/>
<circle cx="997.6" cy="184.9" r="2.5" fill="#111827"/>
<circle cx="1043.6" cy="180.9" r="2.5" fill="#111827"/>
<circle cx="1073.1" cy="196.3" r="2.5" fill="#111827"/>
<circle cx="1002.7" cy="201.8" r="2.5" fill="#111827"/>
<circle cx="1043.3" cy="178.9" r="2.5" fill="#111827"/>
<circle cx="1094.4" cy="158.2" r="2.5" fill="#111827"/>
<circle cx="981.6" cy="161.7" r="2.5" fill="#111827"/>
<circle cx="1041.7" cy="187.3" r="2.5" fill="#111827"/>
<circle cx="1070.3" cy="182.3" r="2.5" fill="#111827"/>
<circle cx="1015.3" cy="186.6" r="2.5" fill="#111827"/>
<circle cx="1043.4" cy="169.8" r="2.5" fill="#111827"/>
<circle cx="1113.4" cy="188.5" r="2.5" fill="#111827"/>
<circle cx="978.3" cy="191.6" r="2.5" fill="#111827"/>
<circle cx="1118.1" cy="196.9" r="2.5" fill="#111827"/>
<circle cx="960.6" cy="200.6" r="2.5" fill="#111827"/>
<circle cx="1137.5" cy="163.7" r="2.5" fill="#111827"/>
<circle cx="942.5" cy="164.2" r="2.5" fill="#111827"/>
</svg>
