<svg xmlns="http://www.w3.org/2000/svg" width="900" height="520" viewBox="0 0 900 520">
<rect width="100%" height="100%" fill="white"/>
<text x="70" y="28" font-size="20" font-family="monospace">AdaMotion lam metrics</text>
<line x1="70" y1="460" x2="870" y2="460" stroke="#444"/>
<line x1="70" y1="50" x2="70" y2="460" stroke="#444"/>
<line x1="70" y1="460.0" x2="870" y2="460.0" stroke="#ddd"/>
<text x="8" y="464.0" font-size="12" font-family="monospace">0.0278</text>
<line x1="70" y1="357.5" x2="870" y2="357.5" stroke="#ddd"/>
<text x="8" y="361.5" font-size="12" font-family="monospace">0.1963</text>
<line x1="70" y1="255.0" x2="870" y2="255.0" stroke="#ddd"/>
<text x="8" y="259.0" font-size="12" font-family="monospace">0.3648</text>
<line x1="70" y1="152.5" x2="870" y2="152.5" stroke="#ddd"/>
<text x="8" y="156.5" font-size="12" font-family="monospace">0.5334</text>
<line x1="70" y1="50.0" x2="870" y2="50.0" stroke="#ddd"/>
<text x="8" y="54.0" font-size="12" font-family="monospace">0.7019</text>
<line x1="70.0" y1="50" x2="70.0" y2="460" stroke="#f1f1f1"/>
<text x="64.0" y="480" font-size="12" font-family="monospace">0</text>
<line x1="870.0" y1="50" x2="870.0" y2="460" stroke="#f1f1f1"/>
<text x="864.0" y="480" font-size="12" font-family="monospace">1</text>
<polyline fill="none" stroke="#1f77b4" stroke-width="2" points="70.0,391.7 870.0,459.5"/>
<line x1="70" y1="500" x2="88" y2="500" stroke="#1f77b4" stroke-width="3"/>
<text x="94" y="504" font-size="12" font-family="monospace">train_loss</text>
<polyline fill="none" stroke="#d62728" stroke-width="2" points="70.0,454.9 870.0,459.8"/>
<line x1="370" y1="500" x2="388" y2="500" stroke="#d62728" stroke-width="3"/>
<text x="394" y="504" font-size="12" font-family="monospace">val_loss</text>
<polyline fill="none" stroke="#2ca02c" stroke-width="2" points="70.0,392.1 870.0,459.8"/>
<line x1="70" y1="482" x2="88" y2="482" stroke="#2ca02c" stroke-width="3"/>
<text x="94" y="486" font-size="12" font-family="monospace">train_mse</text>
<polyline fill="none" stroke="#ff7f0e" stroke-width="2" points="70.0,455.3 870.0,460.0"/>
<line x1="370" y1="482" x2="388" y2="482" stroke="#ff7f0e" stroke-width="3"/>
<text x="394" y="486" font-size="12" font-family="monospace">val_mse</text>
<polyline fill="none" stroke="#9467bd" stroke-width="2" points="70.0,88.0 870.0,150.4"/>
<line x1="70" y1="464" x2="88" y2="464" stroke="#9467bd" stroke-width="3"/>
<text x="94" y="468" font-size="12" font-family="monospace">train_kl</text>
<polyline fill="none" stroke="#8c564b" stroke-width="2" points="70.0,50.0 870.0,234.2"/>
<line x1="370" y1="464" x2="388" y2="464" stroke="#8c564b" stroke-width="3"/>
<text x="394" y="468" font-size="12" font-family="monospace">val_kl</text>
</svg>
