<svg xmlns="http://www.w3.org/2000/svg" width="1200" height="340" viewBox="0 0 1200 340">
<rect width="100%" height="100%" fill="white"/>
<text x="40" y="34" font-size="22" font-family="monospace">action:012698</text>
<rect x="40" y="70" width="260" height="220" fill="#fafafa" stroke="#d4d4d8"/>
<text x="50" y="90" font-size="14" font-family="monospace">t=0</text>
<polyline fill="none" stroke="#0f172a" stroke-width="3" points="170.7,171.2 146.2,171.3 121.8,187.8 125.1,205.2 102.3,154.2"/>
<polyline fill="none" stroke="#2563eb" stroke-width="3" points="170.7,171.2 193.5,177.4 224.6,192.8 221.8,205.8 245.9,159.2"/>
<polyline fill="none" stroke="#dc2626" stroke-width="3" points="170.7,171.2 171.0,190.3 176.9,180.7 177.5,178.1 178.1,191.3 182.7,170.3"/>
<polyline fill="none" stroke="#059669" stroke-width="3" points="177.5,178.1 147.0,185.9 98.1,185.8 84.8,197.8 72.5,161.9"/>
<polyline fill="none" stroke="#d97706" stroke-width="3" points="177.5,178.1 210.2,184.5 259.9,193.2 255.5,203.5 267.5,175.3"/>
<circle cx="170.7" cy="171.2" r="2.5" fill="#111827"/>
<circle cx="193.5" cy="177.4" r="2.5" fill="#111827"/>
<circle cx="146.2" cy="171.3" r="2.5" fill="#111827"/>
<circle cx="171.0" cy="190.3" r="2.5" fill="#111827"/>
<circle cx="224.6" cy="192.8" r="2.5" fill="#111827"/>
<circle cx="121.8" cy="187.8" r="2.5" fill="#111827"/>
<circle cx="176.9" cy="180.7" r="2.5" fill="#111827"/>
<circle cx="221.8" cy="205.8" r="2.5" fill="#111827"/>
<circle cx="125.1" cy="205.2" r="2.5" fill="#111827"/>
<circle cx="177.5" cy="178.1" r="2.5" fill="#111827"/>
<circle cx="245.9" cy="159.2" r="2.5" fill="#111827"/>
<circle cx="102.3" cy="154.2" r="2.5" fill="#111827"/>
<circle cx="178.1" cy="191.3" r="2.5" fill="#111827"/>
<circle cx="210.2" cy="184.5" r="2.5" fill="#111827"/>
<circle cx="147.0" cy="185.9" r="2.5" fill="#111827"/>
<circle cx="182.7" cy="170.3" r="2.5" fill="#111827"/>
<circle cx="259.9" cy="193.2" r="2.5" fill="#111827"/>
<circle cx="98.1" cy="185.8" r="2.5" fill="#111827"/>
<circle cx="255.5" cy="203.5" r="2.5" fill="#111827"/>
<circle cx="84.8" cy="197.8" r="2.5" fill="#111827"/>
<circle cx="267.5" cy="175.3" r="2.5" fill="#111827"/>
<circle cx="72.5" cy="161.9" r="2.5" fill="#111827"/>
<rect x="330" y="70" width="260" height="220" fill="#fafafa" stroke="#d4d4d8"/>
<text x="340" y="90" font-size="14" font-family="monospace">t=7</text>
<polyline fill="none" stroke="#0f172a" stroke-width="3" points="456.4,173.4 437.8,176.5 415.1,181.6 418.9,198.6 400.2,156.6"/>
<polyline fill="none" stroke="#2563eb" stroke-width="3" points="456.4,173.4 478.0,178.8 501.6,186.4 491.6,198.7 515.0,161.7"/>
<polyline fill="none" stroke="#dc2626" stroke-width="3" points="456.4,173.4 453.7,186.7 461.7,179.7 461.2,178.1 459.7,185.6 462.5,168.2"/>
<polyline fill="none" stroke="#059669" stroke-width="3" points="461.2,178.1 432.6,183.4 395.3,185.9 378.2,196.5 362.5,161.1"/>
<polyline fill="none" stroke="#d97706" stroke-width="3" points="461.2,178.1 488.6,182.4 532.4,191.8 534.7,203.4 557.5,173.2"/>
<circle cx="456.4" cy="173.4" r="2.5" fill="#111827"/>
<circle cx="478.0" cy="178.8" r="2.5" fill="#111827"/>
<circle cx="437.8" cy="176.5" r="2.5" fill="#111827"/>
<circle cx="453.7" cy="186.7" r="2.5" fill="#111827"/>
<circle cx="501.6" cy="186.4" r="2.5" fill="#111827"/>
<circle cx="415.1" cy="181.6" r="2.5" fill="#111827"/>
<circle cx="461.7" cy="179.7" r="2.5" fill="#111827"/>
<circle cx="491.6" cy="198.7" r="2.5" fill="#111827"/>
<circle cx="418.9" cy="198.6" r="2.5" fill="#111827"/>
<circle cx="461.2" cy="178.1" r="2.5" fill="#111827"/>
<circle cx="515.0" cy="161.7" r="2.5" fill="#111827"/>
<circle cx="400.2" cy="156.6" r="2.5" fill="#111827"/>
<circle cx="459.7" cy="185.6" r="2.5" fill="#111827"/>
<circle cx="488.6" cy="182.4" r="2.5" fill="#111827"/>
<circle cx="432.6" cy="183.4" r="2.5" fill="#111827"/>
<circle cx="462.5" cy="168.2" r="2.5" fill="#111827"/>
<circle cx="532.4" cy="191.8" r="2.5" fill="#111827"/>
<circle cx="395.3" cy="185.9" r="2.5" fill="#111827"/>
<circle cx="534.7" cy="203.4" r="2.5" fill="#111827"/>
<circle cx="378.2" cy="196.5" r="2.5" fill="#111827"/>
<circle cx="557.5" cy="173.2" r="2.5" fill="#111827"/>
<circle cx="362.5" cy="161.1" r="2.5" fill="#111827"/>
<rect x="620" y="70" width="260" height="220" fill="#fafafa" stroke="#d4d4d8"/>
<text x="630" y="90" font-size="14" font-family="monospace">t=15</text>
<polyline fill="none" stroke="#0f172a" stroke-width="3" points="747.5,174.7 729.7,178.3 706.9,183.3 711.4,200.4 691.7,159.6"/>
<polyline fill="none" stroke="#2563eb" stroke-width="3" points="747.5,174.7 768.9,179.6 792.6,185.2 782.0,197.3 804.6,160.0"/>
<polyline fill="none" stroke="#dc2626" stroke-width="3" points="747.5,174.7 745.3,188.3 753.0,181.0 752.8,178.9 751.0,187.3 753.2,169.8"/>
<polyline fill="none" stroke="#059669" stroke-width="3" points="752.8,178.9 724.6,185.7 687.4,189.4 669.3,197.8 652.5,160.8"/>
<polyline fill="none" stroke="#d97706" stroke-width="3" points="752.8,178.9 779.7,183.2 822.6,190.9 827.0,199.5 847.5,166.9"/>
<circle cx="747.5" cy="174.7" r="2.5" fill="#111827"/>
<circle cx="768.9" cy="179.6" r="2.5" fill="#111827"/>
<circle cx="729.7" cy="178.3" r="2.5" fill="#111827"/>
<circle cx="745.3" cy="188.3" r="2.5" fill="#111827"/>
<circle cx="792.6" cy="185.2" r="2.5" fill="#111827"/>
<circle cx="706.9" cy="183.3" r="2.5" fill="#111827"/>
<circle cx="753.0" cy="181.0" r="2.5" fill="#111827"/>
<circle cx="782.0" cy="197.3" r="2.5" fill="#111827"/>
<circle cx="711.4" cy="200.4" r="2.5" fill="#111827"/>
<circle cx="752.8" cy="178.9" r="2.5" fill="#111827"/>
<circle cx="804.6" cy="160.0" r="2.5" fill="#111827"/>
<circle cx="691.7" cy="159.6" r="2.5" fill="#111827"/>
<circle cx="751.0" cy="187.3" r="2.5" fill="#111827"/>
<circle cx="779.7" cy="183.2" r="2.5" fill="#111827"/>
<circle cx="724.6" cy="185.7" r="2.5" fill="#111827"/>
<circle cx="753.2" cy="169.8" r="2.5" fill="#111827"/>
<circle cx="822.6" cy="190.9" r="2.5" fill="#111827"/>
<circle cx="687.4" cy="189.4" r="2.5" fill="#111827"/>
<circle cx="827.0" cy="199.5" r="2.5" fill="#111827"/>
<circle cx="669.3" cy="197.8" r="2.5" fill="#111827"/>
<circle cx="847.5" cy="166.9" r="2.5" fill="#111827"/>
<circle cx="652.5" cy="160.8" r="2.5" fill="#111827"/>
<rect x="910" y="70" width="260" height="220" fill="#fafafa" stroke="#d4d4d8"/>
<text x="920" y="90" font-size="14" font-family="monospace">t=23</text>
<polyline fill="none" stroke="#0f172a" stroke-width="3" points="1045.3,210.7 1031.5,214.2 1008.7,217.3 1013.7,229.1 994.6,191.3"/>
<polyline fill="none" stroke="#2563eb" stroke-width="3" points="1045.3,210.7 1064.1,214.0 1087.5,215.5 1074.3,226.3 1098.5,188.4"/>
<polyline fill="none" stroke="#dc2626" stroke-width="3" points="1045.3,210.7 1045.2,223.8 1048.4,216.0 1051.5,210.4 1048.5,224.4 1049.0,207.2"/>
<polyline fill="none" stroke="#059669" stroke-width="3" points="1051.5,210.4 1025.9,220.5 992.7,218.9 946.8,192.0 942.5,130.9"/>
<polyline fill="none" stroke="#d97706" stroke-width="3" points="1051.5,210.4 1074.8,221.5 1110.4,220.8 1133.5,197.3 1137.5,145.8"/>
<circle cx="1045.3" cy="210.7" r="2.5" fill="#111827"/>
<circle cx="1064.1" cy="214.0" r="2.5" fill="#111827"/>
<circle cx="1031.5" cy="214.2" r="2.5" fill="#111827"/>
<circle cx="1045.2" cy="223.8" r="2.5" fill="#111827"/>
<circle cx="1087.5" cy="215.5" r="2.5" fill="#111827"/>
<circle cx="1008.7" cy="217.3" r="2.5" fill="#111827"/>
<circle cx="1048.4" cy="216.0" r="2.5" fill="#111827"/>
<circle cx="1074.3" cy="226.3" r="2.5" fill="#111827"/>
<circle cx="1013.7" cy="229.1" r="2.5" fill="#111827"/>
<circle cx="1051.5" cy="210.4" r="2.5" fill="#111827"/>
<circle cx="1098.5" cy="188.4" r="2.5" fill="#111827"/>
<circle cx="994.6" cy="191.3" r="2.5" fill="#111827"/>
<circle cx="1048.5" cy="224.4" r="2.5" fill="#111827"/>
<circle cx="1074.8" cy="221.5" r="2.5" fill="#111827"/>
<circle cx="1025.9" cy="220.5" r="2.5" fill="#111827"/>
<circle cx="1049.0" cy="207.2" r="2.5" fill="#111827"/>
<circle cx="1110.4" cy="220.8" r="2.5" fill="#111827"/>
<circle cx="992.7" cy="218.9" r="2.5" fill="#111827"/>
<circle cx="1133.5" cy="197.3" r="2.5" fill="#111827"/>
<circle cx="946.8" cy="192.0" r="2.5" fill="#111827"/>
<circle cx="1137.5" cy="145.8" r="2.5" fill="#111827"/>
<circle cx="942.5" cy="130.9" r="2.5" fill="#111827"/>
</svg>
