<svg xmlns="http://www.w3.org/2000/svg" width="1200" height="340" viewBox="0 0 1200 340">
<rect width="100%" height="100%" fill="white"/>
<text x="40" y="34" font-size="22" font-family="monospace">no_action:012698</text>
<rect x="40" y="70" width="260" height="220" fill="#fafafa" stroke="#d4d4d8"/>
<text x="50" y="90" font-size="14" font-family="monospace">t=0</text>
<polyline fill="none" stroke="#0f172a" stroke-width="3" points="170.4,171.3 146.4,171.4 122.0,187.5 124.7,204.8 102.2,154.7"/>
<polyline fill="none" stroke="#2563eb" stroke-width="3" points="170.4,171.3 192.8,177.4 222.8,192.3 219.5,205.3 243.1,159.5"/>
<polyline fill="none" stroke="#dc2626" stroke-width="3" points="170.4,171.3 170.7,190.0 176.5,180.6 176.9,178.2 176.9,191.4 180.6,170.5"/>
<polyline fill="none" stroke="#059669" stroke-width="3" points="176.9,178.2 146.6,186.2 98.7,187.1 86.1,197.7 72.5,160.8"/>
<polyline fill="none" stroke="#d97706" stroke-width="3" points="176.9,178.2 208.7,184.3 257.6,192.6 254.8,203.0 267.5,174.2"/>
<circle cx="170.4" cy="171.3" r="2.5" fill="#111827"/>
<circle cx="192.8" cy="177.4" r="2.5" fill="#111827"/>
<circle cx="146.4" cy="171.4" r="2.5" fill="#111827"/>
<circle cx="170.7" cy="190.0" r="2.5" fill="#111827"/>
<circle cx="222.8" cy="192.3" r="2.5" fill="#111827"/>
<circle cx="122.0" cy="187.5" r="2.5" fill="#111827"/>
<circle cx="176.5" cy="180.6" r="2.5" fill="#111827"/>
<circle cx="219.5" cy="205.3" r="2.5" fill="#111827"/>
<circle cx="124.7" cy="204.8" r="2.5" fill="#111827"/>
<circle cx="176.9" cy="178.2" r="2.5" fill="#111827"/>
<circle cx="243.1" cy="159.5" r="2.5" fill="#111827"/>
<circle cx="102.2" cy="154.7" r="2.5" fill="#111827"/>
<circle cx="176.9" cy="191.4" r="2.5" fill="#111827"/>
<circle cx="208.7" cy="184.3" r="2.5" fill="#111827"/>
<circle cx="146.6" cy="186.2" r="2.5" fill="#111827"/>
<circle cx="180.6" cy="170.5" r="2.5" fill="#111827"/>
<circle cx="257.6" cy="192.6" r="2.5" fill="#111827"/>
<circle cx="98.7" cy="187.1" r="2.5" fill="#111827"/>
<circle cx="254.8" cy="203.0" r="2.5" fill="#111827"/>
<circle cx="86.1" cy="197.7" r="2.5" fill="#111827"/>
<circle cx="267.5" cy="174.2" r="2.5" fill="#111827"/>
<circle cx="72.5" cy="160.8" r="2.5" fill="#111827"/>
<rect x="330" y="70" width="260" height="220" fill="#fafafa" stroke="#d4d4d8"/>
<text x="340" y="90" font-size="14" font-family="monospace">t=7</text>
<polyline fill="none" stroke="#0f172a" stroke-width="3" points="456.4,173.4 432.7,173.2 410.8,180.9 410.5,196.9 393.3,155.7"/>
<polyline fill="none" stroke="#2563eb" stroke-width="3" points="456.4,173.4 476.6,179.7 501.6,192.4 497.2,200.7 518.5,161.1"/>
<polyline fill="none" stroke="#dc2626" stroke-width="3" points="456.4,173.4 457.1,187.0 460.9,182.5 460.8,180.5 460.2,186.2 466.8,166.8"/>
<polyline fill="none" stroke="#059669" stroke-width="3" points="460.8,180.5 435.5,184.9 392.2,184.0 380.7,197.4 362.5,163.1"/>
<polyline fill="none" stroke="#d97706" stroke-width="3" points="460.8,180.5 487.1,182.8 534.5,193.9 535.4,204.3 557.5,177.4"/>
<circle cx="456.4" cy="173.4" r="2.5" fill="#111827"/>
<circle cx="476.6" cy="179.7" r="2.5" fill="#111827"/>
<circle cx="432.7" cy="173.2" r="2.5" fill="#111827"/>
<circle cx="457.1" cy="187.0" r="2.5" fill="#111827"/>
<circle cx="501.6" cy="192.4" r="2.5" fill="#111827"/>
<circle cx="410.8" cy="180.9" r="2.5" fill="#111827"/>
<circle cx="460.9" cy="182.5" r="2.5" fill="#111827"/>
<circle cx="497.2" cy="200.7" r="2.5" fill="#111827"/>
<circle cx="410.5" cy="196.9" r="2.5" fill="#111827"/>
<circle cx="460.8" cy="180.5" r="2.5" fill="#111827"/>
<circle cx="518.5" cy="161.1" r="2.5" fill="#111827"/>
<circle cx="393.3" cy="155.7" r="2.5" fill="#111827"/>
<circle cx="460.2" cy="186.2" r="2.5" fill="#111827"/>
<circle cx="487.1" cy="182.8" r="2.5" fill="#111827"/>
<circle cx="435.5" cy="184.9" r="2.5" fill="#111827"/>
<circle cx="466.8" cy="166.8" r="2.5" fill="#111827"/>
<circle cx="534.5" cy="193.9" r="2.5" fill="#111827"/>
<circle cx="392.2" cy="184.0" r="2.5" fill="#111827"/>
<circle cx="535.4" cy="204.3" r="2.5" fill="#111827"/>
<circle cx="380.7" cy="197.4" r="2.5" fill="#111827"/>
<circle cx="557.5" cy="177.4" r="2.5" fill="#111827"/>
<circle cx="362.5" cy="163.1" r="2.5" fill="#111827"/>
<rect x="620" y="70" width="260" height="220" fill="#fafafa" stroke="#d4d4d8"/>
<text x="630" y="90" font-size="14" font-family="monospace">t=15</text>
<polyline fill="none" stroke="#0f172a" stroke-width="3" points="746.5,173.3 723.0,172.8 701.1,180.1 700.7,195.9 684.1,154.7"/>
<polyline fill="none" stroke="#2563eb" stroke-width="3" points="746.5,173.3 766.5,179.7 791.3,192.7 787.1,200.9 808.6,161.8"/>
<polyline fill="none" stroke="#dc2626" stroke-width="3" points="746.5,173.3 746.8,186.9 750.7,182.6 750.6,180.6 749.7,186.5 756.4,167.2"/>
<polyline fill="none" stroke="#059669" stroke-width="3" points="750.6,180.6 725.3,184.8 682.3,183.6 670.5,197.3 652.5,163.4"/>
<polyline fill="none" stroke="#d97706" stroke-width="3" points="750.6,180.6 776.6,183.3 823.5,194.8 824.6,205.3 847.5,179.1"/>
<circle cx="746.5" cy="173.3" r="2.5" fill="#111827"/>
<circle cx="766.5" cy="179.7" r="2.5" fill="#111827"/>
<circle cx="723.0" cy="172.8" r="2.5" fill="#111827"/>
<circle cx="746.8" cy="186.9" r="2.5" fill="#111827"/>
<circle cx="791.3" cy="192.7" r="2.5" fill="#111827"/>
<circle cx="701.1" cy="180.1" r="2.5" fill="#111827"/>
<circle cx="750.7" cy="182.6" r="2.5" fill="#111827"/>
<circle cx="787.1" cy="200.9" r="2.5" fill="#111827"/>
<circle cx="700.7" cy="195.9" r="2.5" fill="#111827"/>
<circle cx="750.6" cy="180.6" r="2.5" fill="#111827"/>
<circle cx="808.6" cy="161.8" r="2.5" fill="#111827"/>
<circle cx="684.1" cy="154.7" r="2.5" fill="#111827"/>
<circle cx="749.7" cy="186.5" r="2.5" fill="#111827"/>
<circle cx="776.6" cy="183.3" r="2.5" fill="#111827"/>
<circle cx="725.3" cy="184.8" r="2.5" fill="#111827"/>
<circle cx="756.4" cy="167.2" r="2.5" fill="#111827"/>
<circle cx="823.5" cy="194.8" r="2.5" fill="#111827"/>
<circle cx="682.3" cy="183.6" r="2.5" fill="#111827"/>
<circle cx="824.6" cy="205.3" r="2.5" fill="#111827"/>
<circle cx="670.5" cy="197.3" r="2.5" fill="#111827"/>
<circle cx="847.5" cy="179.1" r="2.5" fill="#111827"/>
<circle cx="652.5" cy="163.4" r="2.5" fill="#111827"/>
<rect x="910" y="70" width="260" height="220" fill="#fafafa" stroke="#d4d4d8"/>
<text x="920" y="90" font-size="14" font-family="monospace">t=23</text>
<polyline fill="none" stroke="#0f172a" stroke-width="3" points="1037.0,174.5 1014.1,173.6 992.1,180.0 991.8,195.9 975.9,155.0"/>
<polyline fill="none" stroke="#2563eb" stroke-width="3" points="1037.0,174.5 1056.5,181.0 1081.0,193.6 1076.2,201.7 1098.0,163.3"/>
<polyline fill="none" stroke="#dc2626" stroke-width="3" points="1037.0,174.5 1037.4,188.0 1041.1,183.5 1041.1,181.4 1039.8,187.8 1046.4,169.0"/>
<polyline fill="none" stroke="#059669" stroke-width="3" points="1041.1,181.4 1015.9,185.9 973.6,184.5 960.2,195.0 942.5,159.4"/>
<polyline fill="none" stroke="#d97706" stroke-width="3" points="1041.1,181.4 1066.3,185.1 1112.3,196.9 1114.9,205.0 1137.5,177.4"/>
<circle cx="1037.0" cy="174.5" r="2.5" fill="#111827"/>
<circle cx="1056.5" cy="181.0" r="2.5" fill="#111827"/>
<circle cx="1014.1" cy="173.6" r="2.5" fill="#111827"/>
<circle cx="1037.4" cy="188.0" r="2.5" fill="#111827"/>
<circle cx="1081.0" cy="193.6" r="2.5" fill="#111827"/>
<circle cx="992.1" cy="180.0" r="2.5" fill="#111827"/>
<circle cx="1041.1" cy="183.5" r="2.5" fill="#111827"/>
<circle cx="1076.2" cy="201.7" r="2.5" fill="#111827"/>
<circle cx="991.8" cy="195.9" r="2.5" fill="#111827"/>
<circle cx="1041.1" cy="181.4" r="2.5" fill="#111827"/>
<circle cx="1098.0" cy="163.3" r="2.5" fill="#111827"/>
<circle cx="975.9" cy="155.0" r="2.5" fill="#111827"/>
<circle cx="1039.8" cy="187.8" r="2.5" fill="#111827"/>
<circle cx="1066.3" cy="185.1" r="2.5" fill="#111827"/>
<circle cx="1015.9" cy="185.9" r="2.5" fill="#111827"/>
<circle cx="1046.4" cy="169.0" r="2.5" fill="#111827"/>
<circle cx="1112.3" cy="196.9" r="2.5" fill="#111827"/>
<circle cx="973.6" cy="184.5" r="2.5" fill="#111827"/>
<circle cx="1114.9" cy="205.0" r="2.5" fill="#111827"/>
<circle cx="960.2" cy="195.0" r="2.5" fill="#111827"/>
<circle cx="1137.5" cy="177.4" r="2.5" fill="#111827"/>
<circle cx="942.5" cy="159.4" r="2.5" fill="#111827"/>
</svg>
