<svg xmlns="http://www.w3.org/2000/svg" width="1200" height="340" viewBox="0 0 1200 340">
<rect width="100%" height="100%" fill="white"/>
<text x="40" y="34" font-size="22" font-family="monospace">gt:012698</text>
<rect x="40" y="70" width="260" height="220" fill="#fafafa" stroke="#d4d4d8"/>
<text x="50" y="90" font-size="14" font-family="monospace">t=0</text>
<polyline fill="none" stroke="#0f172a" stroke-width="3" points="170.4,171.3 146.4,171.4 122.0,187.5 124.7,204.8 102.2,154.7"/>
<polyline fill="none" stroke="#2563eb" stroke-width="3" points="170.4,171.3 192.8,177.4 222.8,192.3 219.5,205.3 243.1,159.5"/>
<polyline fill="none" stroke="#dc2626" stroke-width="3" points="170.4,171.3 170.7,190.0 176.5,180.6 176.9,178.2 176.9,191.4 180.6,170.5"/>
<polyline fill="none" stroke="#059669" stroke-width="3" points="176.9,178.2 146.6,186.2 98.7,187.1 86.1,197.7 72.5,160.8"/>
<polyline fill="none" stroke="#d97706" stroke-width="3" points="176.9,178.2 208.7,184.3 257.6,192.6 254.8,203.0 267.5,174.2"/>
<circle cx="170.4" cy="171.3" r="2.5" fill="#111827"/>
<circle cx="192.8" cy="177.4" r="2.5" fill="#111827"/>
<circle cx="146.4" cy="171.4" r="2.5" fill="#111827"/>
<circle cx="170.7" cy="190.0" r="2.5" fill="#111827"/>
<circle cx="222.8" cy="192.3" r="2.5" fill="#111827"/>
<circle cx="122.0" cy="187.5" r="2.5" fill="#111827"/>
<circle cx="176.5" cy="180.6" r="2.5" fill="#111827"/>
<circle cx="219.5" cy="205.3" r="2.5" fill="#111827"/>
<circle cx="124.7" cy="204.8" r="2.5" fill="#111827"/>
<circle cx="176.9" cy="178.2" r="2.5" fill="#111827"/>
<circle cx="243.1" cy="159.5" r="2.5" fill="#111827"/>
<circle cx="102.2" cy="154.7" r="2.5" fill="#111827"/>
<circle cx="176.9" cy="191.4" r="2.5" fill="#111827"/>
<circle cx="208.7" cy="184.3" r="2.5" fill="#111827"/>
<circle cx="146.6" cy="186.2" r="2.5" fill="#111827"/>
<circle cx="180.6" cy="170.5" r="2.5" fill="#111827"/>
<circle cx="257.6" cy="192.6" r="2.5" fill="#111827"/>
<circle cx="98.7" cy="187.1" r="2.5" fill="#111827"/>
<circle cx="254.8" cy="203.0" r="2.5" fill="#111827"/>
<circle cx="86.1" cy="197.7" r="2.5" fill="#111827"/>
<circle cx="267.5" cy="174.2" r="2.5" fill="#111827"/>
<circle cx="72.5" cy="160.8" r="2.5" fill="#111827"/>
<rect x="330" y="70" width="260" height="220" fill="#fafafa" stroke="#d4d4d8"/>
<text x="340" y="90" font-size="14" font-family="monospace">t=7</text>
<polyline fill="none" stroke="#0f172a" stroke-width="3" points="460.6,171.3 436.1,171.4 411.7,187.8 415.0,205.2 392.1,154.2"/>
<polyline fill="none" stroke="#2563eb" stroke-width="3" points="460.6,171.3 483.5,177.5 514.6,192.8 511.8,205.8 535.9,159.2"/>
<polyline fill="none" stroke="#dc2626" stroke-width="3" points="460.6,171.3 461.0,190.3 466.9,180.7 467.6,178.1 468.2,191.3 472.8,170.3"/>
<polyline fill="none" stroke="#059669" stroke-width="3" points="467.6,178.1 437.0,185.9 388.1,185.8 374.7,197.5 362.5,161.4"/>
<polyline fill="none" stroke="#d97706" stroke-width="3" points="467.6,178.1 500.3,184.5 550.0,193.2 545.6,203.3 557.5,174.7"/>
<circle cx="460.6" cy="171.3" r="2.5" fill="#111827"/>
<circle cx="483.5" cy="177.5" r="2.5" fill="#111827"/>
<circle cx="436.1" cy="171.4" r="2.5" fill="#111827"/>
<circle cx="461.0" cy="190.3" r="2.5" fill="#111827"/>
<circle cx="514.6" cy="192.8" r="2.5" fill="#111827"/>
<circle cx="411.7" cy="187.8" r="2.5" fill="#111827"/>
<circle cx="466.9" cy="180.7" r="2.5" fill="#111827"/>
<circle cx="511.8" cy="205.8" r="2.5" fill="#111827"/>
<circle cx="415.0" cy="205.2" r="2.5" fill="#111827"/>
<circle cx="467.6" cy="178.1" r="2.5" fill="#111827"/>
<circle cx="535.9" cy="159.2" r="2.5" fill="#111827"/>
<circle cx="392.1" cy="154.2" r="2.5" fill="#111827"/>
<circle cx="468.2" cy="191.3" r="2.5" fill="#111827"/>
<circle cx="500.3" cy="184.5" r="2.5" fill="#111827"/>
<circle cx="437.0" cy="185.9" r="2.5" fill="#111827"/>
<circle cx="472.8" cy="170.3" r="2.5" fill="#111827"/>
<circle cx="550.0" cy="193.2" r="2.5" fill="#111827"/>
<circle cx="388.1" cy="185.8" r="2.5" fill="#111827"/>
<circle cx="545.6" cy="203.3" r="2.5" fill="#111827"/>
<circle cx="374.7" cy="197.5" r="2.5" fill="#111827"/>
<circle cx="557.5" cy="174.7" r="2.5" fill="#111827"/>
<circle cx="362.5" cy="161.4" r="2.5" fill="#111827"/>
<rect x="620" y="70" width="260" height="220" fill="#fafafa" stroke="#d4d4d8"/>
<text x="630" y="90" font-size="14" font-family="monospace">t=15</text>
<polyline fill="none" stroke="#0f172a" stroke-width="3" points="750.0,171.5 725.6,171.5 701.3,187.8 704.5,205.1 681.8,154.3"/>
<polyline fill="none" stroke="#2563eb" stroke-width="3" points="750.0,171.5 772.7,177.7 803.7,192.8 800.9,205.7 824.9,159.3"/>
<polyline fill="none" stroke="#dc2626" stroke-width="3" points="750.0,171.5 750.2,190.5 756.0,181.2 756.5,178.7 756.6,192.3 760.9,171.3"/>
<polyline fill="none" stroke="#059669" stroke-width="3" points="756.5,178.7 725.8,186.6 677.1,186.5 664.5,198.2 652.5,162.4"/>
<polyline fill="none" stroke="#d97706" stroke-width="3" points="756.5,178.7 788.8,185.4 838.4,194.1 834.4,203.4 847.5,175.1"/>
<circle cx="750.0" cy="171.5" r="2.5" fill="#111827"/>
<circle cx="772.7" cy="177.7" r="2.5" fill="#111827"/>
<circle cx="725.6" cy="171.5" r="2.5" fill="#111827"/>
<circle cx="750.2" cy="190.5" r="2.5" fill="#111827"/>
<circle cx="803.7" cy="192.8" r="2.5" fill="#111827"/>
<circle cx="701.3" cy="187.8" r="2.5" fill="#111827"/>
<circle cx="756.0" cy="181.2" r="2.5" fill="#111827"/>
<circle cx="800.9" cy="205.7" r="2.5" fill="#111827"/>
<circle cx="704.5" cy="205.1" r="2.5" fill="#111827"/>
<circle cx="756.5" cy="178.7" r="2.5" fill="#111827"/>
<circle cx="824.9" cy="159.3" r="2.5" fill="#111827"/>
<circle cx="681.8" cy="154.3" r="2.5" fill="#111827"/>
<circle cx="756.6" cy="192.3" r="2.5" fill="#111827"/>
<circle cx="788.8" cy="185.4" r="2.5" fill="#111827"/>
<circle cx="725.8" cy="186.6" r="2.5" fill="#111827"/>
<circle cx="760.9" cy="171.3" r="2.5" fill="#111827"/>
<circle cx="838.4" cy="194.1" r="2.5" fill="#111827"/>
<circle cx="677.1" cy="186.5" r="2.5" fill="#111827"/>
<circle cx="834.4" cy="203.4" r="2.5" fill="#111827"/>
<circle cx="664.5" cy="198.2" r="2.5" fill="#111827"/>
<circle cx="847.5" cy="175.1" r="2.5" fill="#111827"/>
<circle cx="652.5" cy="162.4" r="2.5" fill="#111827"/>
<rect x="910" y="70" width="260" height="220" fill="#fafafa" stroke="#d4d4d8"/>
<text x="920" y="90" font-size="14" font-family="monospace">t=23</text>
<polyline fill="none" stroke="#0f172a" stroke-width="3" points="1040.2,182.4 1019.0,182.3 997.6,195.8 1000.2,210.6 980.4,166.2"/>
<polyline fill="none" stroke="#2563eb" stroke-width="3" points="1040.2,182.4 1060.1,187.9 1087.0,199.6 1084.4,210.6 1105.3,169.9"/>
<polyline fill="none" stroke="#dc2626" stroke-width="3" points="1040.2,182.4 1040.2,199.1 1045.4,191.0 1045.8,188.9 1045.9,200.8 1049.6,182.3"/>
<polyline fill="none" stroke="#059669" stroke-width="3" points="1045.8,188.9 1018.9,195.9 976.3,196.6 959.4,198.0 942.5,149.4"/>
<polyline fill="none" stroke="#d97706" stroke-width="3" points="1045.8,188.9 1074.1,194.7 1117.9,202.7 1120.7,205.2 1137.5,162.2"/>
<circle cx="1040.2" cy="182.4" r="2.5" fill="#111827"/>
<circle cx="1060.1" cy="187.9" r="2.5" fill="#111827"/>
<circle cx="1019.0" cy="182.3" r="2.5" fill="#111827"/>
<circle cx="1040.2" cy="199.1" r="2.5" fill="#111827"/>
<circle cx="1087.0" cy="199.6" r="2.5" fill="#111827"/>
<circle cx="997.6" cy="195.8" r="2.5" fill="#111827"/>
<circle cx="1045.4" cy="191.0" r="2.5" fill="#111827"/>
<circle cx="1084.4" cy="210.6" r="2.5" fill="#111827"/>
<circle cx="1000.2" cy="210.6" r="2.5" fill="#111827"/>
<circle cx="1045.8" cy="188.9" r="2.5" fill="#111827"/>
<circle cx="1105.3" cy="169.9" r="2.5" fill="#111827"/>
<circle cx="980.4" cy="166.2" r="2.5" fill="#111827"/>
<circle cx="1045.9" cy="200.8" r="2.5" fill="#111827"/>
<circle cx="1074.1" cy="194.7" r="2.5" fill="#111827"/>
<circle cx="1018.9" cy="195.9" r="2.5" fill="#111827"/>
<circle cx="1049.6" cy="182.3" r="2.5" fill="#111827"/>
<circle cx="1117.9" cy="202.7" r="2.5" fill="#111827"/>
<circle cx="976.3" cy="196.6" r="2.5" fill="#111827"/>
<circle cx="1120.7" cy="205.2" r="2.5" fill="#111827"/>
<circle cx="959.4" cy="198.0" r="2.5" fill="#111827"/>
<circle cx="1137.5" cy="162.2" r="2.5" fill="#111827"/>
<circle cx="942.5" cy="149.4" r="2.5" fill="#111827"/>
</svg>
