<svg xmlns="http://www.w3.org/2000/svg" width="1200" height="340" viewBox="0 0 1200 340">
<rect width="100%" height="100%" fill="white"/>
<text x="40" y="34" font-size="22" font-family="monospace">gt:012698</text>
<rect x="40" y="70" width="260" height="220" fill="#fafafa" stroke="#d4d4d8"/>
<text x="50" y="90" font-size="14" font-family="monospace">t=0</text>
<polyline fill="none" stroke="#0f172a" stroke-width="3" points="169.8,174.5 153.7,174.4 137.1,185.1 138.3,196.6 123.1,163.1"/>
<polyline fill="none" stroke="#2563eb" stroke-width="3" points="169.8,174.5 184.9,178.8 204.4,188.4 201.7,196.9 217.4,166.2"/>
<polyline fill="none" stroke="#dc2626" stroke-width="3" points="169.8,174.5 169.7,186.9 173.3,180.4 173.4,178.9 172.6,187.8 174.7,173.5"/>
<polyline fill="none" stroke="#059669" stroke-width="3" points="173.4,178.9 152.6,184.3 120.4,186.8 99.4,193.0 72.5,168.0"/>
<polyline fill="none" stroke="#d97706" stroke-width="3" points="173.4,178.9 194.3,183.0 227.6,189.9 240.8,196.3 267.5,177.3"/>
<circle cx="169.8" cy="174.5" r="2.5" fill="#111827"/>
<circle cx="184.9" cy="178.8" r="2.5" fill="#111827"/>
<circle cx="153.7" cy="174.4" r="2.5" fill="#111827"/>
<circle cx="169.7" cy="186.9" r="2.5" fill="#111827"/>
<circle cx="204.4" cy="188.4" r="2.5" fill="#111827"/>
<circle cx="137.1" cy="185.1" r="2.5" fill="#111827"/>
<circle cx="173.3" cy="180.4" r="2.5" fill="#111827"/>
<circle cx="201.7" cy="196.9" r="2.5" fill="#111827"/>
<circle cx="138.3" cy="196.6" r="2.5" fill="#111827"/>
<circle cx="173.4" cy="178.9" r="2.5" fill="#111827"/>
<circle cx="217.4" cy="166.2" r="2.5" fill="#111827"/>
<circle cx="123.1" cy="163.1" r="2.5" fill="#111827"/>
<circle cx="172.6" cy="187.8" r="2.5" fill="#111827"/>
<circle cx="194.3" cy="183.0" r="2.5" fill="#111827"/>
<circle cx="152.6" cy="184.3" r="2.5" fill="#111827"/>
<circle cx="174.7" cy="173.5" r="2.5" fill="#111827"/>
<circle cx="227.6" cy="189.9" r="2.5" fill="#111827"/>
<circle cx="120.4" cy="186.8" r="2.5" fill="#111827"/>
<circle cx="240.8" cy="196.3" r="2.5" fill="#111827"/>
<circle cx="99.4" cy="193.0" r="2.5" fill="#111827"/>
<circle cx="267.5" cy="177.3" r="2.5" fill="#111827"/>
<circle cx="72.5" cy="168.0" r="2.5" fill="#111827"/>
<rect x="330" y="70" width="260" height="220" fill="#fafafa" stroke="#d4d4d8"/>
<text x="340" y="90" font-size="14" font-family="monospace">t=7</text>
<polyline fill="none" stroke="#0f172a" stroke-width="3" points="460.2,171.5 436.7,171.5 412.8,187.3 415.2,204.3 393.2,155.3"/>
<polyline fill="none" stroke="#2563eb" stroke-width="3" points="460.2,171.5 482.2,177.6 511.5,192.0 508.1,204.7 531.2,159.8"/>
<polyline fill="none" stroke="#dc2626" stroke-width="3" points="460.2,171.5 460.4,189.8 466.0,180.5 466.4,178.2 466.2,191.2 469.7,170.7"/>
<polyline fill="none" stroke="#059669" stroke-width="3" points="466.4,178.2 436.6,186.1 389.6,187.4 377.1,198.1 362.5,162.2"/>
<polyline fill="none" stroke="#d97706" stroke-width="3" points="466.4,178.2 497.4,184.1 545.5,192.3 543.7,202.6 557.5,174.7"/>
<circle cx="460.2" cy="171.5" r="2.5" fill="#111827"/>
<circle cx="482.2" cy="177.6" r="2.5" fill="#111827"/>
<circle cx="436.7" cy="171.5" r="2.5" fill="#111827"/>
<circle cx="460.4" cy="189.8" r="2.5" fill="#111827"/>
<circle cx="511.5" cy="192.0" r="2.5" fill="#111827"/>
<circle cx="412.8" cy="187.3" r="2.5" fill="#111827"/>
<circle cx="466.0" cy="180.5" r="2.5" fill="#111827"/>
<circle cx="508.1" cy="204.7" r="2.5" fill="#111827"/>
<circle cx="415.2" cy="204.3" r="2.5" fill="#111827"/>
<circle cx="466.4" cy="178.2" r="2.5" fill="#111827"/>
<circle cx="531.2" cy="159.8" r="2.5" fill="#111827"/>
<circle cx="393.2" cy="155.3" r="2.5" fill="#111827"/>
<circle cx="466.2" cy="191.2" r="2.5" fill="#111827"/>
<circle cx="497.4" cy="184.1" r="2.5" fill="#111827"/>
<circle cx="436.6" cy="186.1" r="2.5" fill="#111827"/>
<circle cx="469.7" cy="170.7" r="2.5" fill="#111827"/>
<circle cx="545.5" cy="192.3" r="2.5" fill="#111827"/>
<circle cx="389.6" cy="187.4" r="2.5" fill="#111827"/>
<circle cx="543.7" cy="202.6" r="2.5" fill="#111827"/>
<circle cx="377.1" cy="198.1" r="2.5" fill="#111827"/>
<circle cx="557.5" cy="174.7" r="2.5" fill="#111827"/>
<circle cx="362.5" cy="162.2" r="2.5" fill="#111827"/>
<rect x="620" y="70" width="260" height="220" fill="#fafafa" stroke="#d4d4d8"/>
<text x="630" y="90" font-size="14" font-family="monospace">t=15</text>
<polyline fill="none" stroke="#0f172a" stroke-width="3" points="750.6,171.3 726.1,171.4 701.7,187.8 705.0,205.2 682.1,154.2"/>
<polyline fill="none" stroke="#2563eb" stroke-width="3" points="750.6,171.3 773.5,177.5 804.6,192.8 801.8,205.8 825.9,159.2"/>
<polyline fill="none" stroke="#dc2626" stroke-width="3" points="750.6,171.3 751.0,190.3 756.9,180.7 757.6,178.1 758.2,191.3 762.8,170.3"/>
<polyline fill="none" stroke="#059669" stroke-width="3" points="757.6,178.1 727.0,185.9 678.1,185.8 664.7,197.5 652.5,161.4"/>
<polyline fill="none" stroke="#d97706" stroke-width="3" points="757.6,178.1 790.3,184.5 840.0,193.2 835.6,203.3 847.5,174.7"/>
<circle cx="750.6" cy="171.3" r="2.5" fill="#111827"/>
<circle cx="773.5" cy="177.5" r="2.5" fill="#111827"/>
<circle cx="726.1" cy="171.4" r="2.5" fill="#111827"/>
<circle cx="751.0" cy="190.3" r="2.5" fill="#111827"/>
<circle cx="804.6" cy="192.8" r="2.5" fill="#111827"/>
<circle cx="701.7" cy="187.8" r="2.5" fill="#111827"/>
<circle cx="756.9" cy="180.7" r="2.5" fill="#111827"/>
<circle cx="801.8" cy="205.8" r="2.5" fill="#111827"/>
<circle cx="705.0" cy="205.2" r="2.5" fill="#111827"/>
<circle cx="757.6" cy="178.1" r="2.5" fill="#111827"/>
<circle cx="825.9" cy="159.2" r="2.5" fill="#111827"/>
<circle cx="682.1" cy="154.2" r="2.5" fill="#111827"/>
<circle cx="758.2" cy="191.3" r="2.5" fill="#111827"/>
<circle cx="790.3" cy="184.5" r="2.5" fill="#111827"/>
<circle cx="727.0" cy="185.9" r="2.5" fill="#111827"/>
<circle cx="762.8" cy="170.3" r="2.5" fill="#111827"/>
<circle cx="840.0" cy="193.2" r="2.5" fill="#111827"/>
<circle cx="678.1" cy="185.8" r="2.5" fill="#111827"/>
<circle cx="835.6" cy="203.3" r="2.5" fill="#111827"/>
<circle cx="664.7" cy="197.5" r="2.5" fill="#111827"/>
<circle cx="847.5" cy="174.7" r="2.5" fill="#111827"/>
<circle cx="652.5" cy="161.4" r="2.5" fill="#111827"/>
<rect x="910" y="70" width="260" height="220" fill="#fafafa" stroke="#d4d4d8"/>
<text x="920" y="90" font-size="14" font-family="monospace">t=23</text>
<polyline fill="none" stroke="#0f172a" stroke-width="3" points="1040.0,171.5 1015.6,171.5 991.3,187.8 994.5,205.1 971.8,154.3"/>
<polyline fill="none" stroke="#2563eb" stroke-width="3" points="1040.0,171.5 1062.7,177.7 1093.7,192.8 1090.9,205.7 1114.9,159.3"/>
<polyline fill="none" stroke="#dc2626" stroke-width="3" points="1040.0,171.5 1040.3,190.5 1046.0,181.2 1046.5,178.7 1046.6,192.3 1050.9,171.3"/>
<polyline fill="none" stroke="#059669" stroke-width="3" points="1046.5,178.7 1015.8,186.6 967.1,186.5 954.5,198.2 942.5,162.5"/>
<polyline fill="none" stroke="#d97706" stroke-width="3" points="1046.5,178.7 1078.8,185.4 1128.4,194.1 1124.4,203.4 1137.5,175.1"/>
<circle cx="1040.0" cy="171.5" r="2.5" fill="#111827"/>
<circle cx="1062.7" cy="177.7" r="2.5" fill="#111827"/>
<circle cx="1015.6" cy="171.5" r="2.5" fill="#111827"/>
<circle cx="1040.3" cy="190.5" r="2.5" fill="#111827"/>
<circle cx="1093.7" cy="192.8" r="2.5" fill="#111827"/>
<circle cx="991.3" cy="187.8" r="2.5" fill="#111827"/>
<circle cx="1046.0" cy="181.2" r="2.5" fill="#111827"/>
<circle cx="1090.9" cy="205.7" r="2.5" fill="#111827"/>
<circle cx="994.5" cy="205.1" r="2.5" fill="#111827"/>
<circle cx="1046.5" cy="178.7" r="2.5" fill="#111827"/>
<circle cx="1114.9" cy="159.3" r="2.5" fill="#111827"/>
<circle cx="971.8" cy="154.3" r="2.5" fill="#111827"/>
<circle cx="1046.6" cy="192.3" r="2.5" fill="#111827"/>
<circle cx="1078.8" cy="185.4" r="2.5" fill="#111827"/>
<circle cx="1015.8" cy="186.6" r="2.5" fill="#111827"/>
<circle cx="1050.9" cy="171.3" r="2.5" fill="#111827"/>
<circle cx="1128.4" cy="194.1" r="2.5" fill="#111827"/>
<circle cx="967.1" cy="186.5" r="2.5" fill="#111827"/>
<circle cx="1124.4" cy="203.4" r="2.5" fill="#111827"/>
<circle cx="954.5" cy="198.2" r="2.5" fill="#111827"/>
<circle cx="1137.5" cy="175.1" r="2.5" fill="#111827"/>
<circle cx="942.5" cy="162.5" r="2.5" fill="#111827"/>
</svg>
