<svg xmlns="http://www.w3.org/2000/svg" width="1200" height="340" viewBox="0 0 1200 340">
<rect width="100%" height="100%" fill="white"/>
<text x="40" y="34" font-size="22" font-family="monospace">action:012698</text>
<rect x="40" y="70" width="260" height="220" fill="#fafafa" stroke="#d4d4d8"/>
<text x="50" y="90" font-size="14" font-family="monospace">t=0</text>
<polyline fill="none" stroke="#0f172a" stroke-width="3" points="169.8,174.5 153.7,174.4 137.1,185.1 138.3,196.6 123.1,163.1"/>
<polyline fill="none" stroke="#2563eb" stroke-width="3" points="169.8,174.5 184.9,178.8 204.4,188.4 201.7,196.9 217.4,166.2"/>
<polyline fill="none" stroke="#dc2626" stroke-width="3" points="169.8,174.5 169.7,186.9 173.3,180.4 173.4,178.9 172.6,187.8 174.7,173.5"/>
<polyline fill="none" stroke="#059669" stroke-width="3" points="173.4,178.9 152.6,184.3 120.4,186.8 99.4,193.0 72.5,168.0"/>
<polyline fill="none" stroke="#d97706" stroke-width="3" points="173.4,178.9 194.3,183.0 227.6,189.9 240.8,196.3 267.5,177.3"/>
<circle cx="169.8" cy="174.5" r="2.5" fill="#111827"/>
<circle cx="184.9" cy="178.8" r="2.5" fill="#111827"/>
<circle cx="153.7" cy="174.4" r="2.5" fill="#111827"/>
<circle cx="169.7" cy="186.9" r="2.5" fill="#111827"/>
<circle cx="204.4" cy="188.4" r="2.5" fill="#111827"/>
<circle cx="137.1" cy="185.1" r="2.5" fill="#111827"/>
<circle cx="173.3" cy="180.4" r="2.5" fill="#111827"/>
<circle cx="201.7" cy="196.9" r="2.5" fill="#111827"/>
<circle cx="138.3" cy="196.6" r="2.5" fill="#111827"/>
<circle cx="173.4" cy="178.9" r="2.5" fill="#111827"/>
<circle cx="217.4" cy="166.2" r="2.5" fill="#111827"/>
<circle cx="123.1" cy="163.1" r="2.5" fill="#111827"/>
<circle cx="172.6" cy="187.8" r="2.5" fill="#111827"/>
<circle cx="194.3" cy="183.0" r="2.5" fill="#111827"/>
<circle cx="152.6" cy="184.3" r="2.5" fill="#111827"/>
<circle cx="174.7" cy="173.5" r="2.5" fill="#111827"/>
<circle cx="227.6" cy="189.9" r="2.5" fill="#111827"/>
<circle cx="120.4" cy="186.8" r="2.5" fill="#111827"/>
<circle cx="240.8" cy="196.3" r="2.5" fill="#111827"/>
<circle cx="99.4" cy="193.0" r="2.5" fill="#111827"/>
<circle cx="267.5" cy="177.3" r="2.5" fill="#111827"/>
<circle cx="72.5" cy="168.0" r="2.5" fill="#111827"/>
<rect x="330" y="70" width="260" height="220" fill="#fafafa" stroke="#d4d4d8"/>
<text x="340" y="90" font-size="14" font-family="monospace">t=7</text>
<polyline fill="none" stroke="#0f172a" stroke-width="3" points="457.4,173.1 439.7,175.9 417.5,181.3 420.9,198.3 403.1,157.9"/>
<polyline fill="none" stroke="#2563eb" stroke-width="3" points="457.4,173.1 478.1,178.9 500.9,185.7 490.7,196.9 513.6,161.5"/>
<polyline fill="none" stroke="#dc2626" stroke-width="3" points="457.4,173.1 455.0,185.5 462.4,179.1 461.5,177.3 459.7,184.5 461.7,168.0"/>
<polyline fill="none" stroke="#059669" stroke-width="3" points="461.5,177.3 433.5,182.5 397.4,186.0 379.5,196.5 362.5,162.3"/>
<polyline fill="none" stroke="#d97706" stroke-width="3" points="461.5,177.3 488.0,181.9 529.2,190.9 534.2,202.1 557.5,173.2"/>
<circle cx="457.4" cy="173.1" r="2.5" fill="#111827"/>
<circle cx="478.1" cy="178.9" r="2.5" fill="#111827"/>
<circle cx="439.7" cy="175.9" r="2.5" fill="#111827"/>
<circle cx="455.0" cy="185.5" r="2.5" fill="#111827"/>
<circle cx="500.9" cy="185.7" r="2.5" fill="#111827"/>
<circle cx="417.5" cy="181.3" r="2.5" fill="#111827"/>
<circle cx="462.4" cy="179.1" r="2.5" fill="#111827"/>
<circle cx="490.7" cy="196.9" r="2.5" fill="#111827"/>
<circle cx="420.9" cy="198.3" r="2.5" fill="#111827"/>
<circle cx="461.5" cy="177.3" r="2.5" fill="#111827"/>
<circle cx="513.6" cy="161.5" r="2.5" fill="#111827"/>
<circle cx="403.1" cy="157.9" r="2.5" fill="#111827"/>
<circle cx="459.7" cy="184.5" r="2.5" fill="#111827"/>
<circle cx="488.0" cy="181.9" r="2.5" fill="#111827"/>
<circle cx="433.5" cy="182.5" r="2.5" fill="#111827"/>
<circle cx="461.7" cy="168.0" r="2.5" fill="#111827"/>
<circle cx="529.2" cy="190.9" r="2.5" fill="#111827"/>
<circle cx="397.4" cy="186.0" r="2.5" fill="#111827"/>
<circle cx="534.2" cy="202.1" r="2.5" fill="#111827"/>
<circle cx="379.5" cy="196.5" r="2.5" fill="#111827"/>
<circle cx="557.5" cy="173.2" r="2.5" fill="#111827"/>
<circle cx="362.5" cy="162.3" r="2.5" fill="#111827"/>
<rect x="620" y="70" width="260" height="220" fill="#fafafa" stroke="#d4d4d8"/>
<text x="630" y="90" font-size="14" font-family="monospace">t=15</text>
<polyline fill="none" stroke="#0f172a" stroke-width="3" points="746.4,173.7 727.7,177.2 705.0,182.8 709.1,199.8 689.5,158.1"/>
<polyline fill="none" stroke="#2563eb" stroke-width="3" points="746.4,173.7 768.3,178.8 791.9,185.8 782.1,198.4 804.8,160.9"/>
<polyline fill="none" stroke="#dc2626" stroke-width="3" points="746.4,173.7 744.1,187.1 752.0,179.9 751.6,178.1 750.4,185.6 752.9,167.9"/>
<polyline fill="none" stroke="#059669" stroke-width="3" points="751.6,178.1 723.0,183.8 685.5,187.0 668.6,197.6 652.5,161.9"/>
<polyline fill="none" stroke="#d97706" stroke-width="3" points="751.6,178.1 779.3,181.9 823.5,190.4 825.6,201.9 847.5,170.7"/>
<circle cx="746.4" cy="173.7" r="2.5" fill="#111827"/>
<circle cx="768.3" cy="178.8" r="2.5" fill="#111827"/>
<circle cx="727.7" cy="177.2" r="2.5" fill="#111827"/>
<circle cx="744.1" cy="187.1" r="2.5" fill="#111827"/>
<circle cx="791.9" cy="185.8" r="2.5" fill="#111827"/>
<circle cx="705.0" cy="182.8" r="2.5" fill="#111827"/>
<circle cx="752.0" cy="179.9" r="2.5" fill="#111827"/>
<circle cx="782.1" cy="198.4" r="2.5" fill="#111827"/>
<circle cx="709.1" cy="199.8" r="2.5" fill="#111827"/>
<circle cx="751.6" cy="178.1" r="2.5" fill="#111827"/>
<circle cx="804.8" cy="160.9" r="2.5" fill="#111827"/>
<circle cx="689.5" cy="158.1" r="2.5" fill="#111827"/>
<circle cx="750.4" cy="185.6" r="2.5" fill="#111827"/>
<circle cx="779.3" cy="181.9" r="2.5" fill="#111827"/>
<circle cx="723.0" cy="183.8" r="2.5" fill="#111827"/>
<circle cx="752.9" cy="167.9" r="2.5" fill="#111827"/>
<circle cx="823.5" cy="190.4" r="2.5" fill="#111827"/>
<circle cx="685.5" cy="187.0" r="2.5" fill="#111827"/>
<circle cx="825.6" cy="201.9" r="2.5" fill="#111827"/>
<circle cx="668.6" cy="197.6" r="2.5" fill="#111827"/>
<circle cx="847.5" cy="170.7" r="2.5" fill="#111827"/>
<circle cx="652.5" cy="161.9" r="2.5" fill="#111827"/>
<rect x="910" y="70" width="260" height="220" fill="#fafafa" stroke="#d4d4d8"/>
<text x="920" y="90" font-size="14" font-family="monospace">t=23</text>
<polyline fill="none" stroke="#0f172a" stroke-width="3" points="1036.7,173.8 1018.3,177.9 996.1,184.2 1000.7,200.9 979.8,160.1"/>
<polyline fill="none" stroke="#2563eb" stroke-width="3" points="1036.7,173.8 1058.6,178.1 1082.5,184.3 1073.2,197.1 1094.5,159.0"/>
<polyline fill="none" stroke="#dc2626" stroke-width="3" points="1036.7,173.8 1034.8,187.2 1042.4,179.8 1041.8,178.3 1040.7,185.8 1042.6,168.3"/>
<polyline fill="none" stroke="#059669" stroke-width="3" points="1041.8,178.3 1013.5,185.0 976.5,189.6 960.1,201.0 942.5,166.6"/>
<polyline fill="none" stroke="#d97706" stroke-width="3" points="1041.8,178.3 1069.4,181.1 1113.5,188.0 1116.4,199.4 1137.5,168.1"/>
<circle cx="1036.7" cy="173.8" r="2.5" fill="#111827"/>
<circle cx="1058.6" cy="178.1" r="2.5" fill="#111827"/>
<circle cx="1018.3" cy="177.9" r="2.5" fill="#111827"/>
<circle cx="1034.8" cy="187.2" r="2.5" fill="#111827"/>
<circle cx="1082.5" cy="184.3" r="2.5" fill="#111827"/>
<circle cx="996.1" cy="184.2" r="2.5" fill="#111827"/>
<circle cx="1042.4" cy="179.8" r="2.5" fill="#111827"/>
<circle cx="1073.2" cy="197.1" r="2.5" fill="#111827"/>
<circle cx="1000.7" cy="200.9" r="2.5" fill="#111827"/>
<circle cx="1041.8" cy="178.3" r="2.5" fill="#111827"/>
<circle cx="1094.5" cy="159.0" r="2.5" fill="#111827"/>
<circle cx="979.8" cy="160.1" r="2.5" fill="#111827"/>
<circle cx="1040.7" cy="185.8" r="2.5" fill="#111827"/>
<circle cx="1069.4" cy="181.1" r="2.5" fill="#111827"/>
<circle cx="1013.5" cy="185.0" r="2.5" fill="#111827"/>
<circle cx="1042.6" cy="168.3" r="2.5" fill="#111827"/>
<circle cx="1113.5" cy="188.0" r="2.5" fill="#111827"/>
<circle cx="976.5" cy="189.6" r="2.5" fill="#111827"/>
<circle cx="1116.4" cy="199.4" r="2.5" fill="#111827"/>
<circle cx="960.1" cy="201.0" r="2.5" fill="#111827"/>
<circle cx="1137.5" cy="168.1" r="2.5" fill="#111827"/>
<circle cx="942.5" cy="166.6" r="2.5" fill="#111827"/>
</svg>
