<svg xmlns="http://www.w3.org/2000/svg" width="1200" height="340" viewBox="0 0 1200 340">
<rect width="100%" height="100%" fill="white"/>
<text x="40" y="34" font-size="22" font-family="monospace">gt:012698</text>
<rect x="40" y="70" width="260" height="220" fill="#fafafa" stroke="#d4d4d8"/>
<text x="50" y="90" font-size="14" font-family="monospace">t=0</text>
<polyline fill="none" stroke="#0f172a" stroke-width="3" points="170.4,176.3 160.4,177.1 150.6,184.5 150.8,191.2 139.6,170.7"/>
<polyline fill="none" stroke="#2563eb" stroke-width="3" points="170.4,176.3 180.3,178.7 192.1,183.8 190.9,188.9 199.6,168.8"/>
<polyline fill="none" stroke="#dc2626" stroke-width="3" points="170.4,176.3 170.7,183.9 172.6,180.5 172.3,179.4 171.5,185.5 172.2,175.1"/>
<polyline fill="none" stroke="#059669" stroke-width="3" points="172.3,179.4 159.0,183.6 138.6,186.1 108.1,188.6 72.5,175.5"/>
<polyline fill="none" stroke="#d97706" stroke-width="3" points="172.3,179.4 185.4,181.7 207.2,184.6 233.4,184.9 267.5,174.2"/>
<circle cx="170.4" cy="176.3" r="2.5" fill="#111827"/>
<circle cx="180.3" cy="178.7" r="2.5" fill="#111827"/>
<circle cx="160.4" cy="177.1" r="2.5" fill="#111827"/>
<circle cx="170.7" cy="183.9" r="2.5" fill="#111827"/>
<circle cx="192.1" cy="183.8" r="2.5" fill="#111827"/>
<circle cx="150.6" cy="184.5" r="2.5" fill="#111827"/>
<circle cx="172.6" cy="180.5" r="2.5" fill="#111827"/>
<circle cx="190.9" cy="188.9" r="2.5" fill="#111827"/>
<circle cx="150.8" cy="191.2" r="2.5" fill="#111827"/>
<circle cx="172.3" cy="179.4" r="2.5" fill="#111827"/>
<circle cx="199.6" cy="168.8" r="2.5" fill="#111827"/>
<circle cx="139.6" cy="170.7" r="2.5" fill="#111827"/>
<circle cx="171.5" cy="185.5" r="2.5" fill="#111827"/>
<circle cx="185.4" cy="181.7" r="2.5" fill="#111827"/>
<circle cx="159.0" cy="183.6" r="2.5" fill="#111827"/>
<circle cx="172.2" cy="175.1" r="2.5" fill="#111827"/>
<circle cx="207.2" cy="184.6" r="2.5" fill="#111827"/>
<circle cx="138.6" cy="186.1" r="2.5" fill="#111827"/>
<circle cx="233.4" cy="184.9" r="2.5" fill="#111827"/>
<circle cx="108.1" cy="188.6" r="2.5" fill="#111827"/>
<circle cx="267.5" cy="174.2" r="2.5" fill="#111827"/>
<circle cx="72.5" cy="175.5" r="2.5" fill="#111827"/>
<rect x="330" y="70" width="260" height="220" fill="#fafafa" stroke="#d4d4d8"/>
<text x="340" y="90" font-size="14" font-family="monospace">t=7</text>
<polyline fill="none" stroke="#0f172a" stroke-width="3" points="460.2,174.1 445.5,175.1 430.7,185.9 432.3,196.4 416.2,166.4"/>
<polyline fill="none" stroke="#2563eb" stroke-width="3" points="460.2,174.1 474.5,177.3 493.1,185.0 491.0,192.9 503.7,163.6"/>
<polyline fill="none" stroke="#dc2626" stroke-width="3" points="460.2,174.1 460.8,185.6 463.9,179.6 463.8,178.1 463.5,186.5 464.6,172.9"/>
<polyline fill="none" stroke="#059669" stroke-width="3" points="463.8,178.1 444.8,184.3 415.1,188.6 392.6,195.4 362.5,174.3"/>
<polyline fill="none" stroke="#d97706" stroke-width="3" points="463.8,178.1 483.4,180.8 514.6,185.2 530.4,189.5 557.5,170.4"/>
<circle cx="460.2" cy="174.1" r="2.5" fill="#111827"/>
<circle cx="474.5" cy="177.3" r="2.5" fill="#111827"/>
<circle cx="445.5" cy="175.1" r="2.5" fill="#111827"/>
<circle cx="460.8" cy="185.6" r="2.5" fill="#111827"/>
<circle cx="493.1" cy="185.0" r="2.5" fill="#111827"/>
<circle cx="430.7" cy="185.9" r="2.5" fill="#111827"/>
<circle cx="463.9" cy="179.6" r="2.5" fill="#111827"/>
<circle cx="491.0" cy="192.9" r="2.5" fill="#111827"/>
<circle cx="432.3" cy="196.4" r="2.5" fill="#111827"/>
<circle cx="463.8" cy="178.1" r="2.5" fill="#111827"/>
<circle cx="503.7" cy="163.6" r="2.5" fill="#111827"/>
<circle cx="416.2" cy="166.4" r="2.5" fill="#111827"/>
<circle cx="463.5" cy="186.5" r="2.5" fill="#111827"/>
<circle cx="483.4" cy="180.8" r="2.5" fill="#111827"/>
<circle cx="444.8" cy="184.3" r="2.5" fill="#111827"/>
<circle cx="464.6" cy="172.9" r="2.5" fill="#111827"/>
<circle cx="514.6" cy="185.2" r="2.5" fill="#111827"/>
<circle cx="415.1" cy="188.6" r="2.5" fill="#111827"/>
<circle cx="530.4" cy="189.5" r="2.5" fill="#111827"/>
<circle cx="392.6" cy="195.4" r="2.5" fill="#111827"/>
<circle cx="557.5" cy="170.4" r="2.5" fill="#111827"/>
<circle cx="362.5" cy="174.3" r="2.5" fill="#111827"/>
<rect x="620" y="70" width="260" height="220" fill="#fafafa" stroke="#d4d4d8"/>
<text x="630" y="90" font-size="14" font-family="monospace">t=15</text>
<polyline fill="none" stroke="#0f172a" stroke-width="3" points="750.4,170.3 727.0,171.8 704.2,189.1 707.8,205.9 682.6,158.5"/>
<polyline fill="none" stroke="#2563eb" stroke-width="3" points="750.4,170.3 772.7,174.9 802.8,187.4 800.3,200.3 820.3,154.1"/>
<polyline fill="none" stroke="#dc2626" stroke-width="3" points="750.4,170.3 751.8,188.5 756.8,178.9 757.0,176.6 757.6,189.5 759.8,168.9"/>
<polyline fill="none" stroke="#059669" stroke-width="3" points="757.0,176.6 727.8,186.4 681.2,190.7 669.4,202.3 652.5,167.4"/>
<polyline fill="none" stroke="#d97706" stroke-width="3" points="757.0,176.6 788.3,180.5 836.7,185.5 835.6,195.8 847.5,167.2"/>
<circle cx="750.4" cy="170.3" r="2.5" fill="#111827"/>
<circle cx="772.7" cy="174.9" r="2.5" fill="#111827"/>
<circle cx="727.0" cy="171.8" r="2.5" fill="#111827"/>
<circle cx="751.8" cy="188.5" r="2.5" fill="#111827"/>
<circle cx="802.8" cy="187.4" r="2.5" fill="#111827"/>
<circle cx="704.2" cy="189.1" r="2.5" fill="#111827"/>
<circle cx="756.8" cy="178.9" r="2.5" fill="#111827"/>
<circle cx="800.3" cy="200.3" r="2.5" fill="#111827"/>
<circle cx="707.8" cy="205.9" r="2.5" fill="#111827"/>
<circle cx="757.0" cy="176.6" r="2.5" fill="#111827"/>
<circle cx="820.3" cy="154.1" r="2.5" fill="#111827"/>
<circle cx="682.6" cy="158.5" r="2.5" fill="#111827"/>
<circle cx="757.6" cy="189.5" r="2.5" fill="#111827"/>
<circle cx="788.3" cy="180.5" r="2.5" fill="#111827"/>
<circle cx="727.8" cy="186.4" r="2.5" fill="#111827"/>
<circle cx="759.8" cy="168.9" r="2.5" fill="#111827"/>
<circle cx="836.7" cy="185.5" r="2.5" fill="#111827"/>
<circle cx="681.2" cy="190.7" r="2.5" fill="#111827"/>
<circle cx="835.6" cy="195.8" r="2.5" fill="#111827"/>
<circle cx="669.4" cy="202.3" r="2.5" fill="#111827"/>
<circle cx="847.5" cy="167.2" r="2.5" fill="#111827"/>
<circle cx="652.5" cy="167.4" r="2.5" fill="#111827"/>
<rect x="910" y="70" width="260" height="220" fill="#fafafa" stroke="#d4d4d8"/>
<text x="920" y="90" font-size="14" font-family="monospace">t=23</text>
<polyline fill="none" stroke="#0f172a" stroke-width="3" points="1040.8,170.1 1016.5,171.8 993.2,189.8 997.6,206.9 971.5,157.6"/>
<polyline fill="none" stroke="#2563eb" stroke-width="3" points="1040.8,170.1 1064.0,174.8 1096.0,188.0 1094.1,201.2 1115.0,153.1"/>
<polyline fill="none" stroke="#dc2626" stroke-width="3" points="1040.8,170.1 1042.4,189.0 1047.7,179.1 1048.2,176.5 1049.6,189.6 1052.9,168.3"/>
<polyline fill="none" stroke="#059669" stroke-width="3" points="1048.2,176.5 1018.2,186.2 969.6,189.3 957.0,201.9 942.5,166.7"/>
<polyline fill="none" stroke="#d97706" stroke-width="3" points="1048.2,176.5 1081.2,180.7 1131.3,186.1 1127.5,196.5 1137.5,167.2"/>
<circle cx="1040.8" cy="170.1" r="2.5" fill="#111827"/>
<circle cx="1064.0" cy="174.8" r="2.5" fill="#111827"/>
<circle cx="1016.5" cy="171.8" r="2.5" fill="#111827"/>
<circle cx="1042.4" cy="189.0" r="2.5" fill="#111827"/>
<circle cx="1096.0" cy="188.0" r="2.5" fill="#111827"/>
<circle cx="993.2" cy="189.8" r="2.5" fill="#111827"/>
<circle cx="1047.7" cy="179.1" r="2.5" fill="#111827"/>
<circle cx="1094.1" cy="201.2" r="2.5" fill="#111827"/>
<circle cx="997.6" cy="206.9" r="2.5" fill="#111827"/>
<circle cx="1048.2" cy="176.5" r="2.5" fill="#111827"/>
<circle cx="1115.0" cy="153.1" r="2.5" fill="#111827"/>
<circle cx="971.5" cy="157.6" r="2.5" fill="#111827"/>
<circle cx="1049.6" cy="189.6" r="2.5" fill="#111827"/>
<circle cx="1081.2" cy="180.7" r="2.5" fill="#111827"/>
<circle cx="1018.2" cy="186.2" r="2.5" fill="#111827"/>
<circle cx="1052.9" cy="168.3" r="2.5" fill="#111827"/>
<circle cx="1131.3" cy="186.1" r="2.5" fill="#111827"/>
<circle cx="969.6" cy="189.3" r="2.5" fill="#111827"/>
<circle cx="1127.5" cy="196.5" r="2.5" fill="#111827"/>
<circle cx="957.0" cy="201.9" r="2.5" fill="#111827"/>
<circle cx="1137.5" cy="167.2" r="2.5" fill="#111827"/>
<circle cx="942.5" cy="166.7" r="2.5" fill="#111827"/>
</svg>
