<svg xmlns="http://www.w3.org/2000/svg" width="1200" height="340" viewBox="0 0 1200 340">
<rect width="100%" height="100%" fill="white"/>
<text x="40" y="34" font-size="22" font-family="monospace">no_action:012698</text>
<rect x="40" y="70" width="260" height="220" fill="#fafafa" stroke="#d4d4d8"/>
<text x="50" y="90" font-size="14" font-family="monospace">t=0</text>
<polyline fill="none" stroke="#0f172a" stroke-width="3" points="169.8,174.5 153.7,174.4 137.1,185.1 138.3,196.6 123.1,163.1"/>
<polyline fill="none" stroke="#2563eb" stroke-width="3" points="169.8,174.5 184.9,178.8 204.4,188.4 201.7,196.9 217.4,166.2"/>
<polyline fill="none" stroke="#dc2626" stroke-width="3" points="169.8,174.5 169.7,186.9 173.3,180.4 173.4,178.9 172.6,187.8 174.7,173.5"/>
<polyline fill="none" stroke="#059669" stroke-width="3" points="173.4,178.9 152.6,184.3 120.4,186.8 99.4,193.0 72.5,168.0"/>
<polyline fill="none" stroke="#d97706" stroke-width="3" points="173.4,178.9 194.3,183.0 227.6,189.9 240.8,196.3 267.5,177.3"/>
<circle cx="169.8" cy="174.5" r="2.5" fill="#111827"/>
<circle cx="184.9" cy="178.8" r="2.5" fill="#111827"/>
<circle cx="153.7" cy="174.4" r="2.5" fill="#111827"/>
<circle cx="169.7" cy="186.9" r="2.5" fill="#111827"/>
<circle cx="204.4" cy="188.4" r="2.5" fill="#111827"/>
<circle cx="137.1" cy="185.1" r="2.5" fill="#111827"/>
<circle cx="173.3" cy="180.4" r="2.5" fill="#111827"/>
<circle cx="201.7" cy="196.9" r="2.5" fill="#111827"/>
<circle cx="138.3" cy="196.6" r="2.5" fill="#111827"/>
<circle cx="173.4" cy="178.9" r="2.5" fill="#111827"/>
<circle cx="217.4" cy="166.2" r="2.5" fill="#111827"/>
<circle cx="123.1" cy="163.1" r="2.5" fill="#111827"/>
<circle cx="172.6" cy="187.8" r="2.5" fill="#111827"/>
<circle cx="194.3" cy="183.0" r="2.5" fill="#111827"/>
<circle cx="152.6" cy="184.3" r="2.5" fill="#111827"/>
<circle cx="174.7" cy="173.5" r="2.5" fill="#111827"/>
<circle cx="227.6" cy="189.9" r="2.5" fill="#111827"/>
<circle cx="120.4" cy="186.8" r="2.5" fill="#111827"/>
<circle cx="240.8" cy="196.3" r="2.5" fill="#111827"/>
<circle cx="99.4" cy="193.0" r="2.5" fill="#111827"/>
<circle cx="267.5" cy="177.3" r="2.5" fill="#111827"/>
<circle cx="72.5" cy="168.0" r="2.5" fill="#111827"/>
<rect x="330" y="70" width="260" height="220" fill="#fafafa" stroke="#d4d4d8"/>
<text x="340" y="90" font-size="14" font-family="monospace">t=7</text>
<polyline fill="none" stroke="#0f172a" stroke-width="3" points="457.4,172.7 435.4,172.9 413.6,180.5 413.7,196.7 396.8,157.7"/>
<polyline fill="none" stroke="#2563eb" stroke-width="3" points="457.4,172.7 476.8,178.6 500.1,190.4 495.8,198.1 516.0,160.6"/>
<polyline fill="none" stroke="#dc2626" stroke-width="3" points="457.4,172.7 457.9,185.6 461.0,181.2 460.8,179.5 459.2,185.0 465.2,166.8"/>
<polyline fill="none" stroke="#059669" stroke-width="3" points="460.8,179.5 436.3,184.2 395.6,184.1 382.3,197.9 362.5,166.3"/>
<polyline fill="none" stroke="#d97706" stroke-width="3" points="460.8,179.5 485.5,181.6 530.2,192.5 534.3,202.3 557.5,176.8"/>
<circle cx="457.4" cy="172.7" r="2.5" fill="#111827"/>
<circle cx="476.8" cy="178.6" r="2.5" fill="#111827"/>
<circle cx="435.4" cy="172.9" r="2.5" fill="#111827"/>
<circle cx="457.9" cy="185.6" r="2.5" fill="#111827"/>
<circle cx="500.1" cy="190.4" r="2.5" fill="#111827"/>
<circle cx="413.6" cy="180.5" r="2.5" fill="#111827"/>
<circle cx="461.0" cy="181.2" r="2.5" fill="#111827"/>
<circle cx="495.8" cy="198.1" r="2.5" fill="#111827"/>
<circle cx="413.7" cy="196.7" r="2.5" fill="#111827"/>
<circle cx="460.8" cy="179.5" r="2.5" fill="#111827"/>
<circle cx="516.0" cy="160.6" r="2.5" fill="#111827"/>
<circle cx="396.8" cy="157.7" r="2.5" fill="#111827"/>
<circle cx="459.2" cy="185.0" r="2.5" fill="#111827"/>
<circle cx="485.5" cy="181.6" r="2.5" fill="#111827"/>
<circle cx="436.3" cy="184.2" r="2.5" fill="#111827"/>
<circle cx="465.2" cy="166.8" r="2.5" fill="#111827"/>
<circle cx="530.2" cy="192.5" r="2.5" fill="#111827"/>
<circle cx="395.6" cy="184.1" r="2.5" fill="#111827"/>
<circle cx="534.3" cy="202.3" r="2.5" fill="#111827"/>
<circle cx="382.3" cy="197.9" r="2.5" fill="#111827"/>
<circle cx="557.5" cy="176.8" r="2.5" fill="#111827"/>
<circle cx="362.5" cy="166.3" r="2.5" fill="#111827"/>
<rect x="620" y="70" width="260" height="220" fill="#fafafa" stroke="#d4d4d8"/>
<text x="630" y="90" font-size="14" font-family="monospace">t=15</text>
<polyline fill="none" stroke="#0f172a" stroke-width="3" points="746.4,173.2 722.6,172.6 700.5,180.0 700.0,196.0 683.5,154.4"/>
<polyline fill="none" stroke="#2563eb" stroke-width="3" points="746.4,173.2 766.5,179.9 791.3,193.0 786.7,201.3 808.7,162.0"/>
<polyline fill="none" stroke="#dc2626" stroke-width="3" points="746.4,173.2 746.8,186.9 750.7,182.5 750.7,180.4 749.9,186.1 756.8,166.8"/>
<polyline fill="none" stroke="#059669" stroke-width="3" points="750.7,180.4 725.2,184.4 681.8,182.7 670.1,195.9 652.5,161.3"/>
<polyline fill="none" stroke="#d97706" stroke-width="3" points="750.7,180.4 776.9,183.2 824.1,195.2 824.9,205.6 847.5,179.0"/>
<circle cx="746.4" cy="173.2" r="2.5" fill="#111827"/>
<circle cx="766.5" cy="179.9" r="2.5" fill="#111827"/>
<circle cx="722.6" cy="172.6" r="2.5" fill="#111827"/>
<circle cx="746.8" cy="186.9" r="2.5" fill="#111827"/>
<circle cx="791.3" cy="193.0" r="2.5" fill="#111827"/>
<circle cx="700.5" cy="180.0" r="2.5" fill="#111827"/>
<circle cx="750.7" cy="182.5" r="2.5" fill="#111827"/>
<circle cx="786.7" cy="201.3" r="2.5" fill="#111827"/>
<circle cx="700.0" cy="196.0" r="2.5" fill="#111827"/>
<circle cx="750.7" cy="180.4" r="2.5" fill="#111827"/>
<circle cx="808.7" cy="162.0" r="2.5" fill="#111827"/>
<circle cx="683.5" cy="154.4" r="2.5" fill="#111827"/>
<circle cx="749.9" cy="186.1" r="2.5" fill="#111827"/>
<circle cx="776.9" cy="183.2" r="2.5" fill="#111827"/>
<circle cx="725.2" cy="184.4" r="2.5" fill="#111827"/>
<circle cx="756.8" cy="166.8" r="2.5" fill="#111827"/>
<circle cx="824.1" cy="195.2" r="2.5" fill="#111827"/>
<circle cx="681.8" cy="182.7" r="2.5" fill="#111827"/>
<circle cx="824.9" cy="205.6" r="2.5" fill="#111827"/>
<circle cx="670.1" cy="195.9" r="2.5" fill="#111827"/>
<circle cx="847.5" cy="179.0" r="2.5" fill="#111827"/>
<circle cx="652.5" cy="161.3" r="2.5" fill="#111827"/>
<rect x="910" y="70" width="260" height="220" fill="#fafafa" stroke="#d4d4d8"/>
<text x="920" y="90" font-size="14" font-family="monospace">t=23</text>
<polyline fill="none" stroke="#0f172a" stroke-width="3" points="1036.4,173.2 1012.9,172.2 990.9,179.2 990.2,195.0 974.3,153.4"/>
<polyline fill="none" stroke="#2563eb" stroke-width="3" points="1036.4,173.2 1056.4,179.9 1080.9,193.3 1076.6,201.5 1098.8,162.8"/>
<polyline fill="none" stroke="#dc2626" stroke-width="3" points="1036.4,173.2 1036.5,186.8 1040.5,182.5 1040.4,180.5 1039.4,186.4 1046.5,167.2"/>
<polyline fill="none" stroke="#059669" stroke-width="3" points="1040.4,180.5 1015.0,184.3 971.9,182.3 959.9,195.8 942.5,161.6"/>
<polyline fill="none" stroke="#d97706" stroke-width="3" points="1040.4,180.5 1066.4,183.7 1113.2,196.1 1114.1,206.6 1137.5,180.8"/>
<circle cx="1036.4" cy="173.2" r="2.5" fill="#111827"/>
<circle cx="1056.4" cy="179.9" r="2.5" fill="#111827"/>
<circle cx="1012.9" cy="172.2" r="2.5" fill="#111827"/>
<circle cx="1036.5" cy="186.8" r="2.5" fill="#111827"/>
<circle cx="1080.9" cy="193.3" r="2.5" fill="#111827"/>
<circle cx="990.9" cy="179.2" r="2.5" fill="#111827"/>
<circle cx="1040.5" cy="182.5" r="2.5" fill="#111827"/>
<circle cx="1076.6" cy="201.5" r="2.5" fill="#111827"/>
<circle cx="990.2" cy="195.0" r="2.5" fill="#111827"/>
<circle cx="1040.4" cy="180.5" r="2.5" fill="#111827"/>
<circle cx="1098.8" cy="162.8" r="2.5" fill="#111827"/>
<circle cx="974.3" cy="153.4" r="2.5" fill="#111827"/>
<circle cx="1039.4" cy="186.4" r="2.5" fill="#111827"/>
<circle cx="1066.4" cy="183.7" r="2.5" fill="#111827"/>
<circle cx="1015.0" cy="184.3" r="2.5" fill="#111827"/>
<circle cx="1046.5" cy="167.2" r="2.5" fill="#111827"/>
<circle cx="1113.2" cy="196.1" r="2.5" fill="#111827"/>
<circle cx="971.9" cy="182.3" r="2.5" fill="#111827"/>
<circle cx="1114.1" cy="206.6" r="2.5" fill="#111827"/>
<circle cx="959.9" cy="195.8" r="2.5" fill="#111827"/>
<circle cx="1137.5" cy="180.8" r="2.5" fill="#111827"/>
<circle cx="942.5" cy="161.6" r="2.5" fill="#111827"/>
</svg>
