<svg xmlns="http://www.w3.org/2000/svg" width="1200" height="340" viewBox="0 0 1200 340">
<rect width="100%" height="100%" fill="white"/>
<text x="40" y="34" font-size="22" font-family="monospace">action:012698</text>
<rect x="40" y="70" width="260" height="220" fill="#fafafa" stroke="#d4d4d8"/>
<text x="50" y="90" font-size="14" font-family="monospace">t=0</text>
<polyline fill="none" stroke="#0f172a" stroke-width="3" points="170.4,176.3 160.4,177.1 150.6,184.5 150.8,191.2 139.6,170.7"/>
<polyline fill="none" stroke="#2563eb" stroke-width="3" points="170.4,176.3 180.3,178.7 192.1,183.8 190.9,188.9 199.6,168.8"/>
<polyline fill="none" stroke="#dc2626" stroke-width="3" points="170.4,176.3 170.7,183.9 172.6,180.5 172.3,179.4 171.5,185.5 172.2,175.1"/>
<polyline fill="none" stroke="#059669" stroke-width="3" points="172.3,179.4 159.0,183.6 138.6,186.1 108.1,188.6 72.5,175.5"/>
<polyline fill="none" stroke="#d97706" stroke-width="3" points="172.3,179.4 185.4,181.7 207.2,184.6 233.4,184.9 267.5,174.2"/>
<circle cx="170.4" cy="176.3" r="2.5" fill="#111827"/>
<circle cx="180.3" cy="178.7" r="2.5" fill="#111827"/>
<circle cx="160.4" cy="177.1" r="2.5" fill="#111827"/>
<circle cx="170.7" cy="183.9" r="2.5" fill="#111827"/>
<circle cx="192.1" cy="183.8" r="2.5" fill="#111827"/>
<circle cx="150.6" cy="184.5" r="2.5" fill="#111827"/>
<circle cx="172.6" cy="180.5" r="2.5" fill="#111827"/>
<circle cx="190.9" cy="188.9" r="2.5" fill="#111827"/>
<circle cx="150.8" cy="191.2" r="2.5" fill="#111827"/>
<circle cx="172.3" cy="179.4" r="2.5" fill="#111827"/>
<circle cx="199.6" cy="168.8" r="2.5" fill="#111827"/>
<circle cx="139.6" cy="170.7" r="2.5" fill="#111827"/>
<circle cx="171.5" cy="185.5" r="2.5" fill="#111827"/>
<circle cx="185.4" cy="181.7" r="2.5" fill="#111827"/>
<circle cx="159.0" cy="183.6" r="2.5" fill="#111827"/>
<circle cx="172.2" cy="175.1" r="2.5" fill="#111827"/>
<circle cx="207.2" cy="184.6" r="2.5" fill="#111827"/>
<circle cx="138.6" cy="186.1" r="2.5" fill="#111827"/>
<circle cx="233.4" cy="184.9" r="2.5" fill="#111827"/>
<circle cx="108.1" cy="188.6" r="2.5" fill="#111827"/>
<circle cx="267.5" cy="174.2" r="2.5" fill="#111827"/>
<circle cx="72.5" cy="175.5" r="2.5" fill="#111827"/>
<rect x="330" y="70" width="260" height="220" fill="#fafafa" stroke="#d4d4d8"/>
<text x="340" y="90" font-size="14" font-family="monospace">t=7</text>
<polyline fill="none" stroke="#0f172a" stroke-width="3" points="459.0,174.8 446.0,177.3 427.2,183.3 429.5,196.7 415.3,167.7"/>
<polyline fill="none" stroke="#2563eb" stroke-width="3" points="459.0,174.8 475.0,178.3 493.9,183.0 486.4,191.6 502.9,163.2"/>
<polyline fill="none" stroke="#dc2626" stroke-width="3" points="459.0,174.8 457.4,183.3 463.0,179.1 462.4,177.0 459.9,183.2 460.3,169.0"/>
<polyline fill="none" stroke="#059669" stroke-width="3" points="462.4,177.0 439.4,182.9 413.6,187.6 386.7,196.8 362.5,172.4"/>
<polyline fill="none" stroke="#d97706" stroke-width="3" points="462.4,177.0 483.0,180.6 512.2,186.1 530.7,192.8 557.5,171.5"/>
<circle cx="459.0" cy="174.8" r="2.5" fill="#111827"/>
<circle cx="475.0" cy="178.3" r="2.5" fill="#111827"/>
<circle cx="446.0" cy="177.3" r="2.5" fill="#111827"/>
<circle cx="457.4" cy="183.3" r="2.5" fill="#111827"/>
<circle cx="493.9" cy="183.0" r="2.5" fill="#111827"/>
<circle cx="427.2" cy="183.3" r="2.5" fill="#111827"/>
<circle cx="463.0" cy="179.1" r="2.5" fill="#111827"/>
<circle cx="486.4" cy="191.6" r="2.5" fill="#111827"/>
<circle cx="429.5" cy="196.7" r="2.5" fill="#111827"/>
<circle cx="462.4" cy="177.0" r="2.5" fill="#111827"/>
<circle cx="502.9" cy="163.2" r="2.5" fill="#111827"/>
<circle cx="415.3" cy="167.7" r="2.5" fill="#111827"/>
<circle cx="459.9" cy="183.2" r="2.5" fill="#111827"/>
<circle cx="483.0" cy="180.6" r="2.5" fill="#111827"/>
<circle cx="439.4" cy="182.9" r="2.5" fill="#111827"/>
<circle cx="460.3" cy="169.0" r="2.5" fill="#111827"/>
<circle cx="512.2" cy="186.1" r="2.5" fill="#111827"/>
<circle cx="413.6" cy="187.6" r="2.5" fill="#111827"/>
<circle cx="530.7" cy="192.8" r="2.5" fill="#111827"/>
<circle cx="386.7" cy="196.8" r="2.5" fill="#111827"/>
<circle cx="557.5" cy="171.5" r="2.5" fill="#111827"/>
<circle cx="362.5" cy="172.4" r="2.5" fill="#111827"/>
<rect x="620" y="70" width="260" height="220" fill="#fafafa" stroke="#d4d4d8"/>
<text x="630" y="90" font-size="14" font-family="monospace">t=15</text>
<polyline fill="none" stroke="#0f172a" stroke-width="3" points="747.7,173.5 730.2,177.2 708.3,183.8 712.7,200.7 692.7,161.3"/>
<polyline fill="none" stroke="#2563eb" stroke-width="3" points="747.7,173.5 768.6,178.2 791.7,183.8 782.1,195.4 803.1,159.0"/>
<polyline fill="none" stroke="#dc2626" stroke-width="3" points="747.7,173.5 745.9,186.0 753.0,179.2 752.0,177.5 750.6,184.7 751.8,168.2"/>
<polyline fill="none" stroke="#059669" stroke-width="3" points="752.0,177.5 724.4,184.1 688.5,189.6 671.3,201.0 652.5,167.8"/>
<polyline fill="none" stroke="#d97706" stroke-width="3" points="752.0,177.5 778.6,180.7 820.2,187.4 825.9,198.3 847.5,168.2"/>
<circle cx="747.7" cy="173.5" r="2.5" fill="#111827"/>
<circle cx="768.6" cy="178.2" r="2.5" fill="#111827"/>
<circle cx="730.2" cy="177.2" r="2.5" fill="#111827"/>
<circle cx="745.9" cy="186.0" r="2.5" fill="#111827"/>
<circle cx="791.7" cy="183.8" r="2.5" fill="#111827"/>
<circle cx="708.3" cy="183.8" r="2.5" fill="#111827"/>
<circle cx="753.0" cy="179.2" r="2.5" fill="#111827"/>
<circle cx="782.1" cy="195.4" r="2.5" fill="#111827"/>
<circle cx="712.7" cy="200.7" r="2.5" fill="#111827"/>
<circle cx="752.0" cy="177.5" r="2.5" fill="#111827"/>
<circle cx="803.1" cy="159.0" r="2.5" fill="#111827"/>
<circle cx="692.7" cy="161.3" r="2.5" fill="#111827"/>
<circle cx="750.6" cy="184.7" r="2.5" fill="#111827"/>
<circle cx="778.6" cy="180.7" r="2.5" fill="#111827"/>
<circle cx="724.4" cy="184.1" r="2.5" fill="#111827"/>
<circle cx="751.8" cy="168.2" r="2.5" fill="#111827"/>
<circle cx="820.2" cy="187.4" r="2.5" fill="#111827"/>
<circle cx="688.5" cy="189.6" r="2.5" fill="#111827"/>
<circle cx="825.9" cy="198.3" r="2.5" fill="#111827"/>
<circle cx="671.3" cy="201.0" r="2.5" fill="#111827"/>
<circle cx="847.5" cy="168.2" r="2.5" fill="#111827"/>
<circle cx="652.5" cy="167.8" r="2.5" fill="#111827"/>
<rect x="910" y="70" width="260" height="220" fill="#fafafa" stroke="#d4d4d8"/>
<text x="920" y="90" font-size="14" font-family="monospace">t=23</text>
<polyline fill="none" stroke="#0f172a" stroke-width="3" points="1036.8,173.9 1018.4,178.5 996.0,185.2 1001.0,202.0 979.2,161.4"/>
<polyline fill="none" stroke="#2563eb" stroke-width="3" points="1036.8,173.9 1058.9,177.8 1082.9,183.5 1073.8,196.6 1094.4,158.0"/>
<polyline fill="none" stroke="#dc2626" stroke-width="3" points="1036.8,173.9 1035.2,187.4 1042.8,179.8 1042.3,178.1 1041.4,185.5 1043.0,167.8"/>
<polyline fill="none" stroke="#059669" stroke-width="3" points="1042.3,178.1 1014.0,185.3 976.8,190.5 960.4,202.0 942.5,167.3"/>
<polyline fill="none" stroke="#d97706" stroke-width="3" points="1042.3,178.1 1070.0,180.4 1114.7,186.4 1117.4,197.8 1137.5,165.5"/>
<circle cx="1036.8" cy="173.9" r="2.5" fill="#111827"/>
<circle cx="1058.9" cy="177.8" r="2.5" fill="#111827"/>
<circle cx="1018.4" cy="178.5" r="2.5" fill="#111827"/>
<circle cx="1035.2" cy="187.4" r="2.5" fill="#111827"/>
<circle cx="1082.9" cy="183.5" r="2.5" fill="#111827"/>
<circle cx="996.0" cy="185.2" r="2.5" fill="#111827"/>
<circle cx="1042.8" cy="179.8" r="2.5" fill="#111827"/>
<circle cx="1073.8" cy="196.6" r="2.5" fill="#111827"/>
<circle cx="1001.0" cy="202.0" r="2.5" fill="#111827"/>
<circle cx="1042.3" cy="178.1" r="2.5" fill="#111827"/>
<circle cx="1094.4" cy="158.0" r="2.5" fill="#111827"/>
<circle cx="979.2" cy="161.4" r="2.5" fill="#111827"/>
<circle cx="1041.4" cy="185.5" r="2.5" fill="#111827"/>
<circle cx="1070.0" cy="180.4" r="2.5" fill="#111827"/>
<circle cx="1014.0" cy="185.3" r="2.5" fill="#111827"/>
<circle cx="1043.0" cy="167.8" r="2.5" fill="#111827"/>
<circle cx="1114.7" cy="186.4" r="2.5" fill="#111827"/>
<circle cx="976.8" cy="190.5" r="2.5" fill="#111827"/>
<circle cx="1117.4" cy="197.8" r="2.5" fill="#111827"/>
<circle cx="960.4" cy="202.0" r="2.5" fill="#111827"/>
<circle cx="1137.5" cy="165.5" r="2.5" fill="#111827"/>
<circle cx="942.5" cy="167.3" r="2.5" fill="#111827"/>
</svg>
