<svg xmlns="http://www.w3.org/2000/svg" width="1200" height="340" viewBox="0 0 1200 340">
<rect width="100%" height="100%" fill="white"/>
<text x="40" y="34" font-size="22" font-family="monospace">no_action:012698</text>
<rect x="40" y="70" width="260" height="220" fill="#fafafa" stroke="#d4d4d8"/>
<text x="50" y="90" font-size="14" font-family="monospace">t=0</text>
<polyline fill="none" stroke="#0f172a" stroke-width="3" points="170.4,176.3 160.4,177.1 150.6,184.5 150.8,191.2 139.6,170.7"/>
<polyline fill="none" stroke="#2563eb" stroke-width="3" points="170.4,176.3 180.3,178.7 192.1,183.8 190.9,188.9 199.6,168.8"/>
<polyline fill="none" stroke="#dc2626" stroke-width="3" points="170.4,176.3 170.7,183.9 172.6,180.5 172.3,179.4 171.5,185.5 172.2,175.1"/>
<polyline fill="none" stroke="#059669" stroke-width="3" points="172.3,179.4 159.0,183.6 138.6,186.1 108.1,188.6 72.5,175.5"/>
<polyline fill="none" stroke="#d97706" stroke-width="3" points="172.3,179.4 185.4,181.7 207.2,184.6 233.4,184.9 267.5,174.2"/>
<circle cx="170.4" cy="176.3" r="2.5" fill="#111827"/>
<circle cx="180.3" cy="178.7" r="2.5" fill="#111827"/>
<circle cx="160.4" cy="177.1" r="2.5" fill="#111827"/>
<circle cx="170.7" cy="183.9" r="2.5" fill="#111827"/>
<circle cx="192.1" cy="183.8" r="2.5" fill="#111827"/>
<circle cx="150.6" cy="184.5" r="2.5" fill="#111827"/>
<circle cx="172.6" cy="180.5" r="2.5" fill="#111827"/>
<circle cx="190.9" cy="188.9" r="2.5" fill="#111827"/>
<circle cx="150.8" cy="191.2" r="2.5" fill="#111827"/>
<circle cx="172.3" cy="179.4" r="2.5" fill="#111827"/>
<circle cx="199.6" cy="168.8" r="2.5" fill="#111827"/>
<circle cx="139.6" cy="170.7" r="2.5" fill="#111827"/>
<circle cx="171.5" cy="185.5" r="2.5" fill="#111827"/>
<circle cx="185.4" cy="181.7" r="2.5" fill="#111827"/>
<circle cx="159.0" cy="183.6" r="2.5" fill="#111827"/>
<circle cx="172.2" cy="175.1" r="2.5" fill="#111827"/>
<circle cx="207.2" cy="184.6" r="2.5" fill="#111827"/>
<circle cx="138.6" cy="186.1" r="2.5" fill="#111827"/>
<circle cx="233.4" cy="184.9" r="2.5" fill="#111827"/>
<circle cx="108.1" cy="188.6" r="2.5" fill="#111827"/>
<circle cx="267.5" cy="174.2" r="2.5" fill="#111827"/>
<circle cx="72.5" cy="175.5" r="2.5" fill="#111827"/>
<rect x="330" y="70" width="260" height="220" fill="#fafafa" stroke="#d4d4d8"/>
<text x="340" y="90" font-size="14" font-family="monospace">t=7</text>
<polyline fill="none" stroke="#0f172a" stroke-width="3" points="459.6,175.4 443.1,176.8 424.8,182.6 427.0,197.3 411.1,168.8"/>
<polyline fill="none" stroke="#2563eb" stroke-width="3" points="459.6,175.4 474.9,179.0 492.5,185.5 490.3,191.2 504.8,162.7"/>
<polyline fill="none" stroke="#dc2626" stroke-width="3" points="459.6,175.4 460.0,184.9 461.8,180.7 461.5,179.4 460.5,183.8 463.7,169.2"/>
<polyline fill="none" stroke="#059669" stroke-width="3" points="461.5,179.4 442.9,184.6 413.7,187.6 389.8,197.0 362.5,176.1"/>
<polyline fill="none" stroke="#d97706" stroke-width="3" points="461.5,179.4 480.1,180.5 514.4,187.5 529.2,192.2 557.5,172.2"/>
<circle cx="459.6" cy="175.4" r="2.5" fill="#111827"/>
<circle cx="474.9" cy="179.0" r="2.5" fill="#111827"/>
<circle cx="443.1" cy="176.8" r="2.5" fill="#111827"/>
<circle cx="460.0" cy="184.9" r="2.5" fill="#111827"/>
<circle cx="492.5" cy="185.5" r="2.5" fill="#111827"/>
<circle cx="424.8" cy="182.6" r="2.5" fill="#111827"/>
<circle cx="461.8" cy="180.7" r="2.5" fill="#111827"/>
<circle cx="490.3" cy="191.2" r="2.5" fill="#111827"/>
<circle cx="427.0" cy="197.3" r="2.5" fill="#111827"/>
<circle cx="461.5" cy="179.4" r="2.5" fill="#111827"/>
<circle cx="504.8" cy="162.7" r="2.5" fill="#111827"/>
<circle cx="411.1" cy="168.8" r="2.5" fill="#111827"/>
<circle cx="460.5" cy="183.8" r="2.5" fill="#111827"/>
<circle cx="480.1" cy="180.5" r="2.5" fill="#111827"/>
<circle cx="442.9" cy="184.6" r="2.5" fill="#111827"/>
<circle cx="463.7" cy="169.2" r="2.5" fill="#111827"/>
<circle cx="514.4" cy="187.5" r="2.5" fill="#111827"/>
<circle cx="413.7" cy="187.6" r="2.5" fill="#111827"/>
<circle cx="529.2" cy="192.2" r="2.5" fill="#111827"/>
<circle cx="389.8" cy="197.0" r="2.5" fill="#111827"/>
<circle cx="557.5" cy="172.2" r="2.5" fill="#111827"/>
<circle cx="362.5" cy="176.1" r="2.5" fill="#111827"/>
<rect x="620" y="70" width="260" height="220" fill="#fafafa" stroke="#d4d4d8"/>
<text x="630" y="90" font-size="14" font-family="monospace">t=15</text>
<polyline fill="none" stroke="#0f172a" stroke-width="3" points="747.5,173.1 725.6,174.4 704.1,183.0 705.1,199.1 686.3,161.0"/>
<polyline fill="none" stroke="#2563eb" stroke-width="3" points="747.5,173.1 767.1,178.0 790.9,188.7 787.0,196.6 805.3,158.2"/>
<polyline fill="none" stroke="#dc2626" stroke-width="3" points="747.5,173.1 748.5,185.9 751.5,181.4 751.2,179.7 749.9,185.3 754.9,166.8"/>
<polyline fill="none" stroke="#059669" stroke-width="3" points="751.2,179.7 727.0,185.5 686.4,187.5 673.8,201.8 652.5,171.2"/>
<polyline fill="none" stroke="#d97706" stroke-width="3" points="751.2,179.7 775.9,180.7 821.1,189.3 825.6,198.9 847.5,172.3"/>
<circle cx="747.5" cy="173.1" r="2.5" fill="#111827"/>
<circle cx="767.1" cy="178.0" r="2.5" fill="#111827"/>
<circle cx="725.6" cy="174.4" r="2.5" fill="#111827"/>
<circle cx="748.5" cy="185.9" r="2.5" fill="#111827"/>
<circle cx="790.9" cy="188.7" r="2.5" fill="#111827"/>
<circle cx="704.1" cy="183.0" r="2.5" fill="#111827"/>
<circle cx="751.5" cy="181.4" r="2.5" fill="#111827"/>
<circle cx="787.0" cy="196.6" r="2.5" fill="#111827"/>
<circle cx="705.1" cy="199.1" r="2.5" fill="#111827"/>
<circle cx="751.2" cy="179.7" r="2.5" fill="#111827"/>
<circle cx="805.3" cy="158.2" r="2.5" fill="#111827"/>
<circle cx="686.3" cy="161.0" r="2.5" fill="#111827"/>
<circle cx="749.9" cy="185.3" r="2.5" fill="#111827"/>
<circle cx="775.9" cy="180.7" r="2.5" fill="#111827"/>
<circle cx="727.0" cy="185.5" r="2.5" fill="#111827"/>
<circle cx="754.9" cy="166.8" r="2.5" fill="#111827"/>
<circle cx="821.1" cy="189.3" r="2.5" fill="#111827"/>
<circle cx="686.4" cy="187.5" r="2.5" fill="#111827"/>
<circle cx="825.6" cy="198.9" r="2.5" fill="#111827"/>
<circle cx="673.8" cy="201.8" r="2.5" fill="#111827"/>
<circle cx="847.5" cy="172.3" r="2.5" fill="#111827"/>
<circle cx="652.5" cy="171.2" r="2.5" fill="#111827"/>
<rect x="910" y="70" width="260" height="220" fill="#fafafa" stroke="#d4d4d8"/>
<text x="920" y="90" font-size="14" font-family="monospace">t=23</text>
<polyline fill="none" stroke="#0f172a" stroke-width="3" points="1036.5,173.7 1012.9,174.2 991.2,182.6 991.4,198.5 973.0,157.9"/>
<polyline fill="none" stroke="#2563eb" stroke-width="3" points="1036.5,173.7 1056.9,179.3 1082.2,191.2 1078.1,199.7 1098.1,159.5"/>
<polyline fill="none" stroke="#dc2626" stroke-width="3" points="1036.5,173.7 1037.6,187.2 1041.3,182.6 1041.2,180.6 1040.6,186.3 1046.6,166.7"/>
<polyline fill="none" stroke="#059669" stroke-width="3" points="1041.2,180.6 1016.0,185.8 972.7,186.2 961.7,199.9 942.5,166.3"/>
<polyline fill="none" stroke="#d97706" stroke-width="3" points="1041.2,180.6 1067.4,182.1 1115.0,191.8 1116.3,202.1 1137.5,174.5"/>
<circle cx="1036.5" cy="173.7" r="2.5" fill="#111827"/>
<circle cx="1056.9" cy="179.3" r="2.5" fill="#111827"/>
<circle cx="1012.9" cy="174.2" r="2.5" fill="#111827"/>
<circle cx="1037.6" cy="187.2" r="2.5" fill="#111827"/>
<circle cx="1082.2" cy="191.2" r="2.5" fill="#111827"/>
<circle cx="991.2" cy="182.6" r="2.5" fill="#111827"/>
<circle cx="1041.3" cy="182.6" r="2.5" fill="#111827"/>
<circle cx="1078.1" cy="199.7" r="2.5" fill="#111827"/>
<circle cx="991.4" cy="198.5" r="2.5" fill="#111827"/>
<circle cx="1041.2" cy="180.6" r="2.5" fill="#111827"/>
<circle cx="1098.1" cy="159.5" r="2.5" fill="#111827"/>
<circle cx="973.0" cy="157.9" r="2.5" fill="#111827"/>
<circle cx="1040.6" cy="186.3" r="2.5" fill="#111827"/>
<circle cx="1067.4" cy="182.1" r="2.5" fill="#111827"/>
<circle cx="1016.0" cy="185.8" r="2.5" fill="#111827"/>
<circle cx="1046.6" cy="166.7" r="2.5" fill="#111827"/>
<circle cx="1115.0" cy="191.8" r="2.5" fill="#111827"/>
<circle cx="972.7" cy="186.2" r="2.5" fill="#111827"/>
<circle cx="1116.3" cy="202.1" r="2.5" fill="#111827"/>
<circle cx="961.7" cy="199.9" r="2.5" fill="#111827"/>
<circle cx="1137.5" cy="174.5" r="2.5" fill="#111827"/>
<circle cx="942.5" cy="166.3" r="2.5" fill="#111827"/>
</svg>
